<svg width="76" height="32" viewBox="0 0 76 32" fill="none" xmlns="http://www.w3.org/2000/svg">
<g id="Apple_Pay-Logo.wine 1">
<path id="Vector" d="M14.8104 4.87457C13.9548 5.86678 12.5859 6.64937 11.2169 6.53757C11.0458 5.19599 11.716 3.77056 12.5003 2.89015C13.3559 1.86999 14.8531 1.1433 16.0652 1.0874C16.2078 2.48488 15.6517 3.85441 14.8104 4.87457ZM16.0509 6.80309C14.0689 6.69129 12.372 7.9071 11.4308 7.9071C10.4754 7.9071 9.0352 6.85899 7.46663 6.88694C5.4275 6.91489 3.53097 8.04685 2.49001 9.84959C0.351062 13.4551 1.93388 18.7935 4.00154 21.7282C5.01397 23.1815 6.22604 24.7747 7.82312 24.7188C9.33465 24.6629 9.93355 23.7545 11.7588 23.7545C13.5983 23.7545 14.1259 24.7188 15.723 24.6908C17.3771 24.6629 18.4181 23.2374 19.4305 21.7841C20.5855 20.135 21.0561 18.5279 21.0846 18.4441C21.0561 18.4161 17.8904 17.2283 17.8619 13.6507C17.8334 10.6601 20.3574 9.2347 20.4714 9.15086C19.0455 7.08259 16.821 6.85899 16.0509 6.80309ZM27.5015 2.7504V24.5371H30.9523V17.0885H35.7293C40.0927 17.0885 43.1586 14.1538 43.1586 9.90549C43.1586 5.65716 40.1498 2.7504 35.8434 2.7504H27.5015ZM30.9523 5.60126H34.9307C37.9253 5.60126 39.6364 7.16643 39.6364 9.91947C39.6364 12.6725 37.9253 14.2517 34.9165 14.2517H30.9523V5.60126ZM49.4613 24.7048C51.6288 24.7048 53.6394 23.6287 54.552 21.9238H54.6233V24.5371H57.8175V13.6927C57.8175 10.5483 55.2508 8.52199 51.3008 8.52199C47.6361 8.52199 44.9268 10.5763 44.8269 13.3992H47.9355C48.1922 12.0576 49.4613 11.1772 51.201 11.1772C53.3114 11.1772 54.495 12.1415 54.495 13.9163V15.1181L50.1886 15.3696C46.1816 15.6072 44.0141 17.2143 44.0141 20.0093C44.0141 22.8322 46.2529 24.7048 49.4613 24.7048ZM50.3882 22.1195C48.5487 22.1195 47.3794 21.253 47.3794 19.9254C47.3794 18.5559 48.5059 17.7593 50.6591 17.6336L54.495 17.396V18.6258C54.495 20.6661 52.7268 22.1195 50.3882 22.1195ZM62.0811 30.4624C65.4464 30.4624 67.0292 29.2047 68.4124 25.3896L74.4728 8.73161H70.9649L66.9009 21.6024H66.8296L62.7656 8.73161H59.1579L65.0044 24.593L64.6906 25.5573C64.163 27.1923 63.3075 27.8212 61.7817 27.8212C61.5107 27.8212 60.9831 27.7932 60.7692 27.7653V30.3786C60.9689 30.4345 61.8245 30.4624 62.0811 30.4624Z" fill="#947FBB"/>
</g>
</svg>
