<svg width="120" height="120" viewBox="0 0 120 120" fill="none" xmlns="http://www.w3.org/2000/svg">
<g id="Isolation_Mode" clip-path="url(#clip0_1162_2580)">
<path id="Vector" d="M118.104 56.8524C116.535 57.7801 114.916 58.6572 113.314 59.4836L114.41 61.6257C116.08 60.7655 117.716 59.8716 119.319 58.9102L118.104 56.8187V56.8524ZM108.389 61.8787C106.719 62.6378 105.032 63.3462 103.329 64.004L104.223 66.2473C105.96 65.5557 107.68 64.8473 109.384 64.0883L108.406 61.8956L108.389 61.8787ZM98.1842 65.8762C96.4469 66.4666 94.7096 66.9894 92.9385 67.4786L93.5963 69.7894C95.3842 69.2834 97.1721 68.7436 98.9432 68.1533L98.1842 65.8762ZM87.6254 68.8448C85.8375 69.2496 84.0496 69.6207 82.2449 69.9412L82.6665 72.3194C84.505 71.9989 86.3267 71.6279 88.1652 71.2062L87.6254 68.8448ZM76.8305 70.7677C75.0089 71.0038 73.2041 71.1893 71.3656 71.3411L71.568 73.7362C73.4403 73.5844 75.2788 73.3989 77.1342 73.1628L76.8305 70.7677ZM65.9007 71.6447C64.0791 71.7122 62.2406 71.7291 60.419 71.6953L60.4021 74.1073C62.2743 74.1242 64.1297 74.1242 66.0019 74.0398L65.9176 71.6279L65.9007 71.6447ZM54.9372 71.5098C53.1156 71.4086 51.2939 71.2399 49.4723 71.0375L49.2024 73.4326C51.0578 73.635 52.93 73.7868 54.7854 73.888L54.9372 71.4761V71.5098ZM44.0411 70.3291C42.2363 70.0424 40.4316 69.7219 38.6437 69.3508L38.1714 71.7122C39.993 72.0833 41.8484 72.4206 43.6869 72.7074L44.058 70.3122L44.0411 70.3291ZM33.2968 68.1195C31.5258 67.6641 29.7716 67.1581 28.0175 66.6184L27.3091 68.9123C29.0801 69.4689 30.9017 69.9749 32.6896 70.4472L33.2968 68.1195ZM22.8224 64.8642C21.1189 64.2401 19.3984 63.5654 17.7117 62.857L16.7672 65.0835C18.4876 65.8256 20.2249 66.4834 21.9622 67.1412L22.7887 64.8642L22.8224 64.8642ZM12.736 60.58C11.0999 59.7872 9.48065 58.9439 7.87829 58.0499L6.71446 60.1583C8.35056 61.0523 10.0035 61.9293 11.6902 62.739L12.736 60.58Z" fill="#DED7EA"/>
<path id="Vector_2" d="M19.0103 54.0355L19.6344 56.3463L8.18168 59.4667L12.1117 70.6833L9.83464 71.476L5.04442 57.8137L19.0103 54.0355Z" fill="#DED7EA"/>
</g>
<defs>
<clipPath id="clip0_1162_2580">
<rect width="81.5791" height="86.8984" fill="white" transform="matrix(0.707107 0.707107 0.707107 -0.707107 0.608398 62.2498)"/>
</clipPath>
</defs>
</svg>
