<svg width="61" height="61" viewBox="0 0 61 61" fill="none" xmlns="http://www.w3.org/2000/svg">
<g id="Brand-Icons">
<path id="9" fill-rule="evenodd" clip-rule="evenodd" d="M30.2087 14.521C29.9009 14.521 29.5931 14.4477 29.3146 14.2866C28.4644 13.7884 28.1712 12.7041 28.6549 11.8395C29.3292 10.682 29.3292 9.20201 28.6696 7.66346C28.4729 7.20469 28.2273 6.75813 27.9367 6.32986C27.8903 6.27156 27.8481 6.21097 27.8101 6.1485C27.3427 5.49678 26.7694 4.89051 26.1043 4.35191L24.7208 6.75125C27.7477 11.6062 29.6528 16.9438 30.4354 22.4066C31.9289 22.1273 33.3201 21.4105 34.412 20.3509C33.2874 17.5748 33.3081 14.439 34.4743 11.6762C33.2547 11.9967 32.285 12.6621 31.7332 13.6125C31.3961 14.184 30.7951 14.5064 30.1794 14.5064L30.2087 14.521ZM30.7858 25.969C30.8615 27.3729 30.8641 28.7799 30.7934 30.1841C32.2059 30.1148 33.618 30.1201 35.0237 30.1984C35.3476 28.171 36.2217 26.26 37.5382 24.6898C37.3172 24.4997 37.1019 24.2996 36.893 24.0893C36.6857 23.8821 36.4882 23.6688 36.3004 23.45C34.7313 24.7649 32.8175 25.6424 30.7858 25.969ZM27.0738 31.8178C27.0597 31.8982 27.0511 31.9803 27.0483 32.0636C26.5162 37.0402 24.9699 41.9326 22.4102 46.4203L13.5811 37.5946L13.615 37.3795C14.4652 32.0459 15.7259 26.7269 17.3823 21.5837C18.7145 17.4472 20.3123 13.3675 22.1526 9.41329C26.2028 16.287 27.8422 24.146 27.0738 31.8178ZM26.2225 46.9263C28.4039 42.7665 29.813 38.3193 30.4501 33.7882C37.8351 33.3204 45.219 35.086 51.5809 38.8301C43.5011 42.6019 34.9968 45.319 26.2225 46.9263ZM11.6876 40.7718L20.2312 49.312C17.0091 52.3089 13.422 54.8966 9.53993 56.9851L4.01366 51.461C6.10347 47.5796 8.68144 43.9932 11.6876 40.7718ZM10.4626 34.4919L10.1557 34.1851C9.46674 33.4818 8.33803 33.4818 7.63441 34.1851C6.9308 34.8738 6.9308 36.0021 7.63441 36.7054L9.16202 38.2324C5.88515 41.7237 3.07592 45.6304 0.803417 49.8492L0.217081 50.9335C-0.164042 51.6222 -0.0321275 52.4867 0.5249 53.0435L7.92748 60.4432C8.26463 60.7949 8.71907 60.9707 9.18814 60.9707L9.23212 61C9.52529 61 9.81844 60.9267 10.0823 60.7802L11.1671 60.1941C15.3978 57.9241 19.2921 55.1185 22.7808 51.846L24.2866 53.3511C24.6384 53.7028 25.0928 53.8786 25.5472 53.8786C26.0017 53.8786 26.456 53.7028 26.8079 53.3511C27.5115 52.6624 27.5115 51.5342 26.8079 50.8308L26.5054 50.5285C36.7935 48.6749 46.7229 45.3663 56.081 40.6618C56.8011 40.2899 57.1674 39.5055 57.0353 38.7509L60.0977 36.9838C60.9625 36.4856 61.2557 35.3867 60.7573 34.5368C60.0802 33.3659 59.2592 32.3169 58.3334 31.4245C59.7306 29.4985 60.4773 27.1475 60.4201 24.7341C60.4054 24.1333 60.0829 23.5765 59.5699 23.2541C58.2392 22.4412 56.7631 21.934 55.2469 21.7436L59.6431 17.349C60.3467 16.6603 60.3467 15.532 59.6431 14.8287C58.682 13.8612 57.61 13.052 56.4756 12.4264C57.3249 10.2043 57.4414 7.74449 56.7555 5.4362C56.5942 4.85008 56.1398 4.39584 55.5535 4.22001C53.2388 3.53276 50.7719 3.65134 48.5448 4.50576C47.9201 3.37503 47.1159 2.30638 46.1572 1.34806C45.4683 0.644723 44.3396 0.644723 43.636 1.34806L39.238 5.74429C39.0463 4.23323 38.5394 2.76233 37.7285 1.43595C37.406 0.9231 36.849 0.586081 36.248 0.586081C33.8262 0.528715 31.4674 1.27985 29.5373 2.68473C28.6389 1.74809 27.5804 0.917939 26.3975 0.234449C25.987 3.23743e-06 25.5033 -0.0586127 25.0489 0.0586104C24.5945 0.190486 24.1987 0.483544 23.9641 0.893824L22.1852 3.97435C21.558 3.88834 20.9255 4.1361 20.5333 4.63731C20.4556 4.73372 20.387 4.83914 20.3287 4.95266C15.6261 14.2861 12.3178 24.2149 10.4626 34.4919ZM56.6529 34.8591L54.2245 36.2584C49.4472 33.2873 44.1123 31.3566 38.5963 30.5564C38.8786 29.0637 39.5924 27.6726 40.6432 26.5798C42.0029 27.1278 43.4497 27.4009 44.8966 27.4009C46.3982 27.4009 47.896 27.1028 49.2984 26.5107C48.973 27.7074 48.3124 28.6587 47.374 29.2031C46.5091 29.7013 46.216 30.8003 46.7144 31.6502C47.2128 32.5147 48.3121 32.8078 49.1623 32.3096C50.3204 31.6502 51.8009 31.6355 53.34 32.2949C53.7869 32.4863 54.2202 32.726 54.6365 33.0083C54.7084 33.0675 54.7842 33.1205 54.863 33.1673C55.5079 33.6356 56.109 34.2068 56.6529 34.8591ZM45.9433 7.3372C45.9743 7.46788 46.0207 7.5965 46.083 7.72054C46.24 8.18549 46.3536 8.6562 46.4211 9.12874C46.6556 10.7845 46.2598 12.2205 45.3217 13.1583C44.9699 13.51 44.794 13.9642 44.794 14.4184C44.794 14.8727 44.9699 15.3269 45.3217 15.6786C46.0106 16.3819 47.1394 16.3819 47.843 15.6786C48.7811 14.7261 50.2177 14.3452 51.8741 14.5796C52.3721 14.6507 52.8681 14.7729 53.3575 14.9431C53.4264 14.9729 53.4964 14.9983 53.5672 15.0191C54.3155 15.3014 55.0466 15.6959 55.744 16.1914L50.3643 21.569C50.293 21.6402 50.2207 21.7098 50.1474 21.7776C50.0601 21.842 49.9791 21.914 49.9052 21.9927C47.4792 24.058 44.0714 24.3849 41.3347 22.9732C41.244 22.9125 41.1484 22.8608 41.0494 22.8183C40.4641 22.4844 39.9134 22.0679 39.4143 21.569C38.9064 21.0613 38.4839 20.5002 38.1469 19.9035C38.1161 19.8379 38.0812 19.774 38.0423 19.7121C36.4991 16.7892 36.9565 13.0802 39.4143 10.6233L44.794 5.24572L44.8086 5.26038C45.2825 5.92669 45.6639 6.62378 45.9433 7.3372ZM53.1417 11.167C52.8908 11.1135 52.6391 11.069 52.3871 11.0336C51.5663 10.9164 50.7747 10.9017 50.0125 10.975C50.0858 10.2131 50.0711 9.4218 49.9538 8.60124C49.9171 8.34986 49.8714 8.09876 49.8169 7.84836C51.0051 7.38999 52.2986 7.24421 53.5599 7.42898C53.7446 8.6885 53.5992 9.98021 53.1417 11.167ZM35.1486 4.19069C35.6591 5.35259 35.8557 6.6352 35.7205 7.90135C34.6088 7.95197 33.56 8.16515 32.6128 8.52798C32.4955 7.78068 32.2609 7.01874 31.9384 6.25679C31.8401 6.02842 31.7336 5.80255 31.6191 5.57949C32.6529 4.81821 33.8681 4.33291 35.1486 4.19069ZM56.814 25.8477C56.6622 27.1055 56.1892 28.3072 55.4427 29.3339C55.209 29.2131 54.9722 29.101 54.7326 28.998C53.9704 28.6756 53.2081 28.4412 52.4605 28.324C52.8169 27.3942 53.029 26.3665 53.0845 25.2777C54.3527 25.1392 55.6361 25.3353 56.814 25.8477Z" fill="#8572A8"/>
</g>
</svg>
