<svg xmlns="http://www.w3.org/2000/svg" width="29" height="27" viewBox="0 0 30 27" fill="none">
    <path d="M28.7291 8.07129C29.3646 8.07129 30 7.49695 30 6.80041C30 6.10387 29.4257 5.52953 28.7291 5.52953H25.387L24.9165 1.14257C24.8554 0.507128 24.3422 0 23.7067 0H7.43585C7.11813 0 6.80041 0.12831 6.54379 0.378819L0.378819 6.54379C0.1222 6.80041 0 7.11813 0 7.43585V19.6375C0 20.334 0.574338 20.9084 1.27088 20.9084H2.91446C2.8778 21.1344 2.86558 21.3727 2.86558 21.6049C2.86558 24.2139 4.9613 26.3096 7.57026 26.3096C10.112 26.3096 12.2749 24.2139 12.2749 21.6049C12.2749 21.3422 12.2505 21.0917 12.2138 20.8411H15.391C15.3483 21.0917 15.3299 21.3422 15.3299 21.6049C15.3299 24.2139 17.4257 26.3096 20.0346 26.3096C22.6436 26.3096 24.7393 24.2139 24.7393 21.6049C24.7393 21.3422 24.7149 21.0917 24.6782 20.8411H25.6314C26.7739 20.7984 26.9633 19.888 26.9022 19.5092L26.3768 14.6151H28.2342C28.8697 14.6151 29.444 14.0407 29.5051 13.3442C29.5051 12.6477 28.9308 12.0733 28.2342 12.0733H26.1018L25.6741 8.07129H28.7291ZM7.37475 3.10998V7.17923H3.3055L7.37475 3.10998ZM7.56416 23.835C6.35438 23.835 5.34012 22.8208 5.34012 21.611C5.34012 20.4012 6.35438 19.387 7.56416 19.387C8.77393 19.387 9.78819 20.4012 9.78819 21.611C9.78819 22.8147 8.76782 23.835 7.56416 23.835ZM20.0224 23.835C18.8126 23.835 17.7984 22.8208 17.7984 21.611C17.7984 20.4012 18.8126 19.387 20.0224 19.387C21.7882 19.387 22.2464 21.0794 22.2464 21.611C22.2464 22.8147 21.2322 23.835 20.0224 23.835ZM23.5906 12.0733H19.833C19.1365 12.0733 18.5621 12.6477 18.5621 13.3442C18.5621 14.0407 19.1365 14.6151 19.833 14.6151H23.8472L24.22 18.2994H23.3707C22.5214 17.4379 21.3361 16.9002 20.0163 16.9002C18.6965 16.9002 17.5173 17.4318 16.6619 18.2994C16.6619 18.2994 10.9369 18.2994 10.9124 18.3055C10.0631 17.4379 8.87169 16.9002 7.55804 16.9002C6.20774 16.9002 4.99796 17.4623 4.14257 18.3666C4.11813 18.3666 4.08758 18.3605 4.06314 18.3605H2.53564V9.72098H8.5723C9.26884 9.72098 9.84318 9.14664 9.90428 8.5112V2.47454H22.6191L22.9246 5.52342H17.279C16.5825 5.52342 16.0081 6.09776 16.0081 6.7943C16.0081 7.49084 16.5825 8.06518 17.279 8.06518H23.1874L23.5906 12.0733Z" fill="white"/>
</svg>