<svg width="46" height="46" viewBox="0 0 46 46" fill="none" xmlns="http://www.w3.org/2000/svg">
<g id="Icon">
<g id="Icon/Glyph/25/Shipping">
<g id="iconspace_Debit Card_25px">
<path id="Combined Shape" fill-rule="evenodd" clip-rule="evenodd" d="M35.4446 9.6665H10.5557C7.11928 9.6665 4.3335 12.4523 4.3335 15.8887V16.7776H41.6668V15.8887C41.6668 12.4523 38.881 9.6665 35.4446 9.6665ZM4.3335 31.8887V23.8887H41.6668V31.8887C41.6668 35.3252 38.881 38.1109 35.4446 38.1109H10.5557C7.11928 38.1109 4.3335 35.3252 4.3335 31.8887ZM35.4446 32.7776H28.3335C27.8426 32.7776 27.4446 32.3796 27.4446 31.8887C27.4446 31.3978 27.8426 30.9998 28.3335 30.9998H35.4446C35.9355 30.9998 36.3335 31.3978 36.3335 31.8887C36.3335 32.3796 35.9355 32.7776 35.4446 32.7776ZM4.3335 22.1109V18.5554H41.6668V22.1109H4.3335Z" fill="#947FBB"/>
</g>
</g>
</g>
</svg>
