<svg width="38" height="38" viewBox="0 0 38 38" fill="none" xmlns="http://www.w3.org/2000/svg">
<path opacity="0.4" fill-rule="evenodd" clip-rule="evenodd" d="M14.8607 2.14859C15.423 2.48601 15.6054 3.21546 15.268 3.77784L10.518 11.6945C10.1805 12.2569 9.4511 12.4392 8.88872 12.1018C8.32635 11.7644 8.14399 11.035 8.48142 10.4726L13.2314 2.5559C13.5688 1.99353 14.2983 1.81117 14.8607 2.14859Z" fill="#766696"/>
<path opacity="0.4" fill-rule="evenodd" clip-rule="evenodd" d="M29.1107 12.1018C28.5483 12.4392 27.8188 12.2569 27.4814 11.6945L22.7314 3.77782C22.394 3.21546 22.5763 2.48601 23.1387 2.14859C23.7011 1.81117 24.4305 1.99353 24.7679 2.5559L29.5179 10.4726C29.8553 11.035 29.6729 11.7644 29.1107 12.1018Z" fill="#766696"/>
<path opacity="0.4" d="M32.113 29.7793C31.5115 32.7221 28.9441 34.8333 25.9668 34.8333H12.0328C9.05559 34.8333 6.48813 32.7221 5.88674 29.7793L3.29811 17.1127C2.49508 13.1832 5.46872 9.5 9.4442 9.5H28.5554C32.531 9.5 35.5047 13.1832 34.7016 17.1127L32.113 29.7793Z" fill="#766696"/>
<path d="M28.5554 9.5H9.4442C5.90469 9.5 3.15931 12.4197 3.16652 15.8333H34.8332C34.8403 12.4197 32.095 9.5 28.5554 9.5Z" fill="#766696"/>
<path fill-rule="evenodd" clip-rule="evenodd" d="M14.25 20.9792C14.9058 20.9792 15.4375 21.5109 15.4375 22.1667V28.5C15.4375 29.1558 14.9058 29.6875 14.25 29.6875C13.5942 29.6875 13.0625 29.1558 13.0625 28.5V22.1667C13.0625 21.5109 13.5942 20.9792 14.25 20.9792Z" fill="#766696"/>
<path fill-rule="evenodd" clip-rule="evenodd" d="M23.75 20.9792C24.4058 20.9792 24.9375 21.5109 24.9375 22.1667V28.5C24.9375 29.1558 24.4058 29.6875 23.75 29.6875C23.0942 29.6875 22.5625 29.1558 22.5625 28.5V22.1667C22.5625 21.5109 23.0942 20.9792 23.75 20.9792Z" fill="#766696"/>
</svg>
