<svg width="61" height="61" viewBox="0 0 61 61" fill="none" xmlns="http://www.w3.org/2000/svg">
<g id="Brand-Icons">
<path id="6" d="M12.9708 19.6C9.92221 19.6 9.92221 14.984 12.9708 14.984C16.0193 14.984 15.9762 19.6 12.9708 19.6ZM30.5 61C13.7185 61 0 47.2815 0 30.5C0 13.7185 13.4309 0 30.5 0C47.5691 0 61 13.661 61 30.5C61 47.339 47.339 61 30.5 61ZM30.5 4.61598C19.3699 4.61598 9.80717 11.7053 6.16902 21.6275C9.69213 20.7647 15.1709 20.1895 22.0877 21.7426C23.2956 22.0302 24.1009 23.2381 23.8133 24.446V38.9123C23.8133 41.9609 28.4293 41.9609 28.4293 38.9123V34.0087C28.4293 30.9602 33.0453 30.9602 33.0453 34.0087C33.0453 37.0573 37.6037 37.0573 37.6037 34.0087V30.1405C37.6037 28.7025 38.9842 27.6096 40.4222 27.8972C48.1443 29.5078 53.7381 28.0698 56.2115 27.207C54.6009 14.4663 43.7009 4.6016 30.5 4.6016M4.90358 26.8475C2.71782 42.4066 14.8258 56.3696 30.5 56.3696C44.2761 56.3696 55.5212 45.5846 56.3265 32.0387C52.2282 33.1891 47.3965 33.5917 42.2053 32.9015V33.9943C42.2053 38.8979 37.3017 42.1766 32.8727 40.451C32.1825 43.4995 29.4071 45.8147 26.1285 45.8147C22.3178 45.8147 19.2117 42.7086 19.2117 38.8979V25.8696C11.8923 24.6042 6.87365 26.0422 4.91796 26.8475M18.0613 16.8677C16.0481 16.8677 15.0127 14.3944 16.4507 12.942L17.6011 11.7916C19.7869 9.66336 23.0224 12.8845 20.8942 15.0271C19.9738 16.0049 19.3411 16.8677 18.0757 16.8677M26.488 12.4818C24.4748 12.4818 23.3675 10.0085 24.8774 8.49858L26.0278 7.34818C28.1561 5.21993 31.4491 8.44106 29.3208 10.6412C28.343 11.5615 27.7103 12.4818 26.5024 12.4818M36.3095 14.2074C34.2963 14.2074 33.1891 11.7341 34.699 10.2817L35.8494 9.1313C37.9776 6.94554 41.2706 10.2242 39.128 12.3524C38.1502 13.2727 37.5174 14.1931 36.3095 14.1931M43.1688 19.7294C41.1556 19.7294 40.1202 17.256 41.5582 15.8036L42.7086 14.6532C44.8944 12.4675 48.1299 15.7461 46.0017 17.8743C45.0813 18.7947 44.4486 19.715 43.1832 19.715M46.3468 26.8618C44.3336 26.8618 43.2407 24.3885 44.7362 22.9361L45.8866 21.7857C48.0149 19.6575 51.3079 22.8786 49.1221 25.0068C48.2018 25.9847 47.5691 26.8475 46.3468 26.8475M33.491 22.8067C31.4203 22.8067 30.385 20.3333 31.823 18.8809L33.0309 17.673C35.1591 15.5448 38.3946 18.8234 36.252 20.966C35.3317 21.8864 34.699 22.8067 33.491 22.8067ZM26.6318 19.111C23.5832 19.111 23.5832 14.495 26.6318 14.495C29.6803 14.495 29.6372 19.111 26.6318 19.111ZM39.9477 25.3951C36.8991 25.3951 36.8991 20.7791 39.9477 20.7791C42.9962 20.7791 42.9962 25.3951 39.9477 25.3951Z" fill="#8572A8"/>
</g>
</svg>
