<svg width="45" height="46" viewBox="0 0 45 46" fill="none" xmlns="http://www.w3.org/2000/svg">
<g id="Icon">
<g id="Icon/Glyph/25/Shipping">
<g id="iconspace_Logistic Truck_25px">
<path id="Combined Shape" fill-rule="evenodd" clip-rule="evenodd" d="M4.22217 23.7773H23.7777V12.2218C23.7777 10.4951 24.7624 8.99843 26.2008 8.26257C25.7669 7.95687 25.2377 7.77734 24.6666 7.77734H6.88883C5.41608 7.77734 4.22217 8.97125 4.22217 10.444V23.7773ZM41.5555 28.2218C41.5555 27.5387 41.2987 26.9157 40.8763 26.4439C41.2987 25.9721 41.5555 25.349 41.5555 24.6659V21.9996H35.3333C33.8605 21.9996 32.6666 20.8057 32.6666 19.3329V15.7773C32.6666 14.3046 33.8605 13.1107 35.3333 13.1107H40.0831L40.0378 12.9262C39.7787 11.8718 38.9062 11.0798 37.8317 10.9236L28.6057 9.58284C28.4787 9.56439 28.3505 9.55512 28.2222 9.55512C26.7494 9.55512 25.5555 10.749 25.5555 12.2218V24.6659C25.5555 24.9777 25.609 25.277 25.7074 25.5551H6.88883C5.41608 25.5551 4.22217 26.749 4.22217 28.2218V29.9996C4.22217 31.4723 5.41608 32.6662 6.88883 32.6662H7.84074C8.27205 29.6509 10.8653 27.3329 13.9999 27.3329C17.1346 27.3329 19.7278 29.6509 20.1592 32.6662H27.3963C27.8276 29.6509 30.4209 27.3329 33.5555 27.3329C36.647 27.3329 39.2118 29.5874 39.6957 32.542C40.774 32.2001 41.5555 31.1911 41.5555 29.9996V28.2218ZM41.4785 18.7884L40.52 14.8885H35.3333C34.8424 14.8885 34.4444 15.2864 34.4444 15.7773V19.3329C34.4444 19.8238 34.8424 20.2218 35.3333 20.2218H41.5555V19.4248C41.5555 19.2104 41.5296 18.9967 41.4785 18.7884ZM18.4444 33.5551C18.4444 36.0097 16.4545 37.9996 13.9999 37.9996C11.5453 37.9996 9.55548 36.0097 9.55548 33.5551C9.55548 31.1005 11.5453 29.1107 13.9999 29.1107C16.4545 29.1107 18.4444 31.1005 18.4444 33.5551ZM37.9999 33.5551C37.9999 36.0097 36.01 37.9996 33.5554 37.9996C31.1008 37.9996 29.111 36.0097 29.111 33.5551C29.111 31.1005 31.1008 29.1107 33.5554 29.1107C36.01 29.1107 37.9999 31.1005 37.9999 33.5551Z" fill="#947FBB"/>
</g>
</g>
</g>
</svg>
