<svg width="25" height="26" viewBox="0 0 25 26" fill="#006C35" xmlns="http://www.w3.org/2000/svg">
<path d="M12.5 24.8735C18.9721 24.8735 24.2188 19.6269 24.2188 13.1548C24.2188 6.6827 18.9721 1.43604 12.5 1.43604C6.02791 1.43604 0.78125 6.6827 0.78125 13.1548C0.78125 19.6269 6.02791 24.8735 12.5 24.8735Z" fill="#006C35"/>
<path d="M12.3828 11.0845C12.3438 10.7329 12.5391 10.3813 12.8906 10.4595C13.1641 10.4985 13.4766 10.772 13.3203 11.0454C13.0859 11.4751 12.4609 11.4751 12.0703 11.7095C12.1094 11.9438 13.2422 11.6704 13.4375 11.6704C13.6328 11.6704 13.8281 11.7485 13.7109 11.9829C13.5937 12.2173 13.2031 12.2173 12.9688 12.2563C12.7344 12.2954 12.3437 12.2954 12.2266 12.4907C11.9922 12.8032 12.4609 12.8423 12.6172 12.9204C13.0078 13.1157 12.3828 13.311 12.2266 13.272C11.6406 13.1548 11.5234 12.8423 11.1719 12.4517C10.8203 12.9204 9.72656 13.9751 9.49219 12.8813C9.10156 13.0376 8.71094 13.2329 8.28125 13.272C8.47656 12.9985 8.86719 12.8813 9.17969 12.7251C9.57031 12.5298 9.57031 12.1782 9.80469 11.8657C9.88281 11.9829 9.80469 12.1392 9.84375 12.2954C10.1562 12.1392 10.5469 11.8267 10.3906 11.436C10.3906 11.397 9.92187 10.4595 10.3125 10.6157C10.6641 10.772 10.5469 11.1235 10.625 11.397C10.7422 11.9048 10.5078 12.1782 10.1172 12.4907C9.96094 12.6079 9.53125 13.0767 10.0391 13.0767C10.3906 13.0767 10.7031 12.686 10.8984 12.4517C11.1328 12.1392 11.0547 11.8267 10.8984 11.4751C10.7812 11.2017 10.5078 10.6157 10.8594 10.4204C11.1328 10.8501 11.25 11.3579 11.3672 11.8657C11.4453 12.2954 11.5234 12.7251 11.9922 12.8423C11.9531 12.5298 12.1484 12.2954 12.4219 12.1782C12.2266 12.022 11.1328 12.2173 11.5625 11.6313C11.6016 11.3579 12.3828 11.2407 12.3828 11.0845Z" fill="white"/>
<path d="M6.40606 12.5298C6.60137 13.0767 7.26544 12.8813 7.65606 12.7251C8.28106 12.4126 8.28106 11.9438 8.28106 11.3188C8.04669 11.436 8.08575 11.8657 8.00762 12.061C7.85137 12.3735 7.34356 12.647 6.992 12.6079C6.48419 12.5298 6.24981 11.6704 6.64044 11.3579C6.71856 11.6313 6.52325 12.2173 6.992 12.2563C7.34356 12.2954 8.04669 11.8657 7.9295 11.4751C7.46075 11.6313 7.18731 11.4751 7.34356 10.9673C7.46075 10.4985 7.9295 10.8501 8.12481 11.0845C8.867 10.6548 7.53887 9.01416 8.32012 8.58447C8.47637 8.85791 8.71075 9.20947 8.51544 9.48291C8.28106 9.79541 8.51544 10.4595 8.5545 10.811C8.94512 10.4595 8.63262 11.0845 8.94512 11.1235C9.14044 11.1626 9.21856 10.6548 9.33575 10.6548C9.37481 10.772 9.37481 11.1235 9.57012 11.0845C9.8045 11.0063 9.53106 10.6938 9.76544 10.6157C9.84356 10.811 9.8045 11.397 9.53106 11.3579C9.29669 11.3188 9.33575 11.1626 9.06231 11.3188C8.82794 11.436 8.74981 11.3188 8.59356 11.2017C8.5545 11.6704 8.71075 12.1782 8.43731 12.6079C8.20294 12.9595 7.73419 13.1548 7.34356 13.2329C6.32794 13.4282 6.0545 12.4126 6.40606 11.5923C6.48419 11.8267 6.32794 12.2563 6.40606 12.5298Z" fill="white"/>
<path d="M15.9373 12.7251C16.1326 13.2329 16.5232 12.1782 16.6404 12.022C16.9529 11.5532 17.4216 12.7642 17.617 11.9829C17.7341 11.4751 17.5779 10.9673 17.5388 10.4595C17.4998 10.1079 17.3826 9.79543 17.1482 9.522C16.9138 9.2095 16.6795 8.93606 16.7966 8.54543C17.1873 8.70168 17.1873 9.01418 17.3826 9.32668C17.4216 9.09231 17.2654 8.77981 17.4216 8.5845C17.617 8.31106 17.7732 9.05325 17.7732 9.13137C17.8123 9.32668 17.617 9.40481 17.7341 9.71731C17.8123 9.95168 17.9685 10.1861 18.1248 10.3814C18.0857 10.147 17.7341 8.54543 18.1248 8.54543C18.242 8.54543 18.3591 9.01418 18.3591 9.09231C18.4373 9.32668 18.281 9.522 18.281 9.79543C18.242 10.2642 18.3201 10.8111 18.6326 11.1626C18.7888 11.3579 19.3748 12.0611 19.0623 12.2954C18.8279 12.022 18.6716 11.7095 18.4763 11.4361C18.4763 11.7486 18.5545 12.1001 18.3982 12.3345C18.242 12.2564 18.3201 11.7486 18.3201 11.6314C18.3201 11.2017 18.0466 10.8501 17.8123 10.4986C17.7341 11.0845 18.2029 12.1782 17.656 12.6079C17.3045 12.9204 16.8357 12.2173 16.7185 12.4907C16.6013 12.6861 16.3279 13.3892 16.0154 13.3111C15.6248 13.2329 15.3513 12.1392 15.781 12.022C15.8201 12.2173 15.8201 12.4907 15.9373 12.7251Z" fill="white"/>
<path d="M7.57797 10.0689C7.85141 10.108 7.57797 9.17046 7.57797 9.01421C7.61704 8.85796 7.73422 8.77984 7.81235 8.93609C7.92954 9.17046 7.92954 9.4439 7.9686 9.67827C7.9686 9.87359 8.00766 10.108 7.85141 10.2642C7.61704 10.4986 7.30454 10.3814 7.18735 10.0689C6.64047 10.5376 7.3436 11.358 6.87485 11.8267C6.79672 11.397 6.87485 10.9283 6.7186 10.5376C6.64047 10.3423 6.28891 10.4205 6.24985 10.0689C6.24985 9.91265 6.36704 9.48296 6.21079 9.36577C6.13266 9.52202 6.05454 10.733 5.66391 10.3814C5.35141 10.147 5.42954 9.36577 5.54672 9.05327C5.7811 9.17046 5.50766 10.0298 5.82016 10.0689C5.97641 10.108 6.01547 9.4439 6.05454 9.32671C6.17172 9.1314 6.56235 8.58452 6.48422 9.1314C6.44516 9.36577 6.24985 10.108 6.7186 10.0689C6.67954 9.67827 6.64047 9.28765 6.56235 8.89702C6.52329 8.70171 6.64047 8.31109 6.79672 8.66265C6.91391 8.89702 6.83579 9.01421 6.79672 9.24859C6.75766 9.52202 6.87485 9.79546 6.91391 10.0298C7.14829 9.83452 6.83579 9.09234 7.0311 8.77984C7.49985 9.05327 6.99204 9.99077 7.57797 10.0689Z" fill="white"/>
<path d="M12.6169 10.147C12.4216 10.4204 12.07 10.1861 11.9138 9.99075C11.7185 10.2251 11.3279 10.6157 11.0154 10.3032C10.781 10.0689 11.0544 9.63919 10.8591 9.44387C10.7419 9.63919 10.5466 10.5767 10.195 10.147C9.99973 9.91262 9.72629 9.09231 10.156 8.897C10.1169 9.2095 10.0388 9.56106 10.2341 9.8345C10.4294 10.1079 10.6247 9.40481 10.7029 9.24856C10.82 8.97512 11.2107 8.50637 11.1325 9.09231C11.0935 9.32669 11.0154 9.87356 11.2497 10.0298C11.406 10.147 11.6013 9.95169 11.6794 9.8345C11.8357 9.63919 11.7575 9.32669 11.7185 9.09231C11.6794 8.897 11.6013 8.66262 11.7185 8.46731C11.8747 8.23294 11.9919 8.77981 11.9919 8.897C11.9919 9.01419 12.1482 10.2251 12.4216 9.8345C12.695 9.48294 11.9529 8.70169 12.4607 8.50637C12.656 8.42825 13.0075 9.2095 12.6169 8.97512C12.7341 9.32669 12.8904 9.8345 12.6169 10.147Z" fill="white"/>
<path d="M14.1015 10.6157C14.1406 11.1236 14.5703 12.5298 13.9843 12.8423C13.9062 12.6861 13.9843 12.4517 14.0234 12.2564C14.0624 11.9048 13.9843 11.5532 13.9453 11.2407C13.8671 10.4986 13.789 9.95168 13.2812 9.36574C13.164 9.20949 12.9687 9.09231 12.9296 8.85793C12.9296 8.77981 12.8906 8.42824 13.0468 8.50637C13.164 8.54543 13.8281 9.13137 13.4765 9.13137C13.5156 9.20949 13.6718 9.52199 13.7499 9.52199C13.7499 9.32668 13.5156 8.74074 13.7499 8.62356C13.9453 8.50637 14.1796 9.24856 14.1015 9.40481C14.0234 9.60012 14.0234 9.71731 14.1015 9.99074C14.1796 10.3032 14.3749 10.5767 14.5312 10.8501C14.7656 11.2407 15.2343 11.7876 15.1171 12.2954C14.8828 12.1782 14.7265 11.6314 14.6093 11.397C14.5312 11.2017 14.4531 11.0064 14.3359 10.8501C14.2968 10.8111 14.0624 10.4986 14.1015 10.6939V10.6157Z" fill="white"/>
<path d="M19.5313 11.3579C19.5703 12.1782 19.2969 13.2329 18.2812 13.2329C18.2812 12.9985 18.7891 12.7642 18.9453 12.647C19.3359 12.3345 19.2969 11.7485 19.2578 11.3188C19.2188 10.7329 19.1797 10.147 19.0625 9.56103C19.0234 9.20947 18.8281 8.70166 19.1406 8.46729C19.3359 8.62354 19.6094 9.05322 19.4922 9.20947C19.2969 9.44385 19.4922 11.2017 19.5313 11.3579Z" fill="white"/>
<path d="M14.5313 13.1157C15.5469 12.5298 15.2344 11.2798 15.1563 10.3032C15.1172 10.0298 15.1172 9.75636 15.0781 9.48292C15.0781 9.28761 14.9219 9.01417 15 8.81886C15.1953 8.31105 15.3516 8.7798 15.3906 9.0923C15.4297 9.28761 15.2734 9.32667 15.3125 9.48292C15.3516 9.79542 15.3516 10.1079 15.3906 10.4204C15.4297 10.9282 15.5078 11.436 15.4688 11.9048C15.3906 12.647 15 13.4673 14.1016 13.311C14.1406 13.2329 14.4141 13.1939 14.5313 13.1157Z" fill="white"/>
<path d="M16.1719 11.1626C16.2109 11.5532 16.3672 12.2564 16.1719 12.6079C16.0156 12.8423 16.0156 12.4517 15.9766 12.4126C15.9375 12.1001 15.9375 11.7876 15.9375 11.436C15.8594 10.5767 15.5859 9.7173 15.5859 8.89699C15.5859 7.8423 16.4844 9.48292 15.9766 9.4048C16.0156 9.99074 16.0938 10.5767 16.1719 11.1626Z" fill="white"/>
<path d="M9.80455 9.17041C9.88268 9.36572 8.90611 9.87353 8.78893 9.87353C8.74986 9.67822 9.21861 9.40478 9.3358 9.32666C9.45299 9.20947 9.53111 9.20947 9.49205 9.05322C9.41393 8.89697 9.45299 8.62353 9.6483 8.54541C10.0389 8.42822 9.76549 9.01416 9.80455 9.17041Z" fill="white"/>
<path d="M5.78117 12.647C5.78117 12.9595 5.89836 12.8032 6.05461 12.7251C6.13273 12.8813 5.93742 13.311 5.74211 13.1157C5.46867 12.8423 5.70305 12.2173 5.82023 11.9438C5.89836 12.1392 5.74211 12.4517 5.78117 12.647Z" fill="white"/>
<path d="M16.797 10.2251C16.836 10.0688 16.7188 9.91259 16.836 9.75634C16.9923 9.56103 17.1485 9.79541 17.0704 9.87353C16.9923 9.95166 16.8751 9.79541 16.8751 10.0298C16.8751 10.147 16.9532 10.3813 16.836 10.4985C16.7579 10.4595 16.4063 9.95166 16.4454 9.87353C16.6017 9.71728 16.7579 10.186 16.797 10.2251Z" fill="white"/>
<path d="M6.60156 10.8892C6.52344 11.0454 5.625 11.5532 5.58594 11.4361C5.58594 11.3189 6.71875 10.6548 6.60156 10.8892Z" fill="white"/>
<path d="M13.2422 12.8814C13.125 13.2329 13.6329 12.9204 13.75 12.8814C13.5938 13.1548 13.0469 13.3892 13.125 12.8814C13.086 12.8814 13.0079 12.9204 12.9688 12.9204C12.8907 12.8423 13.3594 12.5298 13.2422 12.8814Z" fill="white"/>
<path d="M17.4997 12.7642C17.6169 12.7642 17.8122 13.1157 17.695 13.1938C17.6169 13.272 17.2653 13.311 17.4606 13.1548C17.695 12.9204 17.4997 12.7642 17.4997 12.7642Z" fill="white"/>
<path d="M11.992 10.772C12.0311 10.6938 12.0311 10.5767 12.0701 10.4985C12.4608 10.811 11.4451 11.3188 11.6405 10.5767C11.7186 10.6548 11.7186 10.772 11.7967 10.811C11.7967 10.7329 11.8358 10.6157 11.8358 10.5376C11.9139 10.6157 11.9139 10.7329 11.992 10.772Z" fill="white"/>
<path d="M16.5624 11.2798C16.4453 11.1235 17.1484 10.6938 17.2656 10.6157C17.3437 10.7329 16.7968 11.1626 16.5624 11.2798Z" fill="white"/>
<path d="M18.7499 9.71729C18.6718 9.48291 18.4374 9.01416 18.6718 8.81885C18.828 8.93604 18.9062 9.52197 18.7499 9.71729Z" fill="white"/>
<path d="M14.4922 8.93604C14.4531 8.85791 14.3359 8.77979 14.3359 8.6626C14.375 8.50635 14.4531 8.54541 14.5312 8.62354C14.6484 8.77979 14.7266 9.20947 14.5312 9.32666C14.5312 9.20947 14.5703 9.05322 14.4922 8.93604Z" fill="white"/>
<path d="M9.7263 9.99076C9.7263 10.2251 9.33567 10.4595 9.29661 10.147C9.25755 10.0298 9.45286 9.60013 9.53099 9.71732C9.37474 10.0689 9.37474 10.1861 9.7263 9.99076Z" fill="white"/>
<path d="M14.6093 9.56103C14.7655 9.95166 14.6874 9.6001 14.8436 9.52197C15.1171 10.0298 14.2577 9.9126 14.453 9.6001C14.4921 9.63916 14.5311 9.71728 14.5311 9.75635C14.5702 9.71728 14.5702 9.63916 14.6093 9.56103Z" fill="white"/>
<path d="M17.1092 11.3579C16.9139 11.2017 17.1483 11.0064 17.2655 11.2017C17.3436 11.3189 17.3436 11.6314 17.1873 11.7095C17.1873 11.5923 17.2264 11.436 17.1092 11.3579Z" fill="white"/>
<path d="M9.10146 12.2173C9.10146 12.1392 9.0624 11.5532 9.17959 11.6314C9.33584 11.7095 9.29678 12.1392 9.10146 12.2173Z" fill="white"/>
<path d="M7.46091 8.54541C7.49997 8.6626 7.53903 8.81885 7.61716 8.62353C7.92966 8.9751 6.83591 8.85791 7.22653 8.50635C7.22653 8.54541 7.30466 8.77979 7.46091 8.54541Z" fill="white"/>
<path d="M11.4454 9.40479C11.4454 9.24854 11.211 8.58447 11.4063 8.58447C11.6407 8.62354 11.6016 9.20947 11.4454 9.40479Z" fill="white"/>
<path d="M5.97621 9.05326C5.85902 9.0142 6.05433 8.81889 5.97621 8.66264C5.89808 8.7017 5.81996 8.58451 5.89808 8.50639C6.21058 8.27201 6.0934 9.05326 5.97621 9.05326Z" fill="white"/>
<path d="M16.0938 16.9829L15.9375 16.5142L15.7813 16.9829H7.22656C7.22656 16.9829 7.30469 17.686 8.16406 17.686H15.7422V18.2329H17.8125V16.9829H16.0938ZM17.4219 17.9204H16.0156V17.5298H17.4219V17.9204Z" fill="white"/>
</svg>
