<svg width="904" height="906" viewBox="0 0 904 906" fill="none" xmlns="http://www.w3.org/2000/svg">
<g opacity="0.05" clip-path="url(#clip0_1162_2540)">
<path d="M588.007 205.96C667.287 174.056 688.958 134.762 688.958 102.809C688.958 85.6333 681.751 70.9044 674.544 61.0688C652.922 26.6687 604.824 21.7754 566.385 43.8932C504.805 79.5656 450.284 199.403 438.664 331.523C437.389 345.958 417.876 348.748 412.483 335.34C378.947 251.762 406.697 180.172 412.09 166.422C446.068 86.563 434.203 43.1592 412.09 20.552C400.176 8.41656 384.928 3.1807 373.014 1.46803C333.938 -7.19316 296.529 24.0752 284.615 67.479C263.091 147.045 323.936 297.661 431.016 404.923C435.723 409.67 443.224 410.11 448.568 406.098C451.657 403.798 453.618 400.177 454.01 396.262C468.523 258.661 571.435 213.251 588.007 205.96Z" fill="url(#paint0_linear_1162_2540)"/>
<path d="M870.758 428.607C817.415 381.092 688.664 368.223 562.855 400.861C549.127 404.434 540.057 386.524 550.647 376.884C616.689 316.843 691.998 319.877 706.462 320.513C791.478 326.776 827.613 300.94 841.145 272.167C848.401 256.704 848.156 240.213 845.803 228.176C840.851 187.61 799.617 161.92 755.54 164.856C674.936 170.483 556.089 279.115 492.498 417.841C489.704 423.958 491.763 431.298 497.205 435.164C500.392 437.366 504.363 438.051 508.09 437.17C639.978 405.51 716.022 489.675 728.231 503.279C783.977 569.143 827.466 576.972 856.932 566.403C872.818 560.727 884.045 548.885 890.713 538.658C915.277 506.411 903.902 458.407 870.709 428.705" fill="url(#paint1_linear_1162_2540)"/>
<path d="M490.733 489.137C489.752 492.954 490.39 496.967 492.498 500.294C565.453 616.902 512.943 718.145 504.461 734.391C462.149 809.993 469.307 854.473 488.87 879.38C499.411 892.788 514.022 899.688 525.691 902.721C563.639 915.738 604.137 888.824 620.611 846.986C646.793 779.801 616.002 651.449 544.175 540.958C536.33 528.871 549.862 514.24 562.266 521.237C639.585 564.984 661.747 638.579 666.012 652.77C688.418 736.789 724.259 763.066 755.294 766.589C772.013 768.449 787.114 762.772 797.459 756.509C833.251 738.306 843.302 690.008 825.994 648.513C794.076 572.666 654.392 494.079 505.196 478.812C498.627 478.127 492.498 482.531 490.782 489.088" fill="url(#paint2_linear_1162_2540)"/>
<path d="M416.846 489.969C413.022 490.263 409.492 492.269 407.138 495.352C323.642 604.326 212.787 587.297 194.94 584.508C111.1 568.752 72.416 590.429 55.8932 617.538C47.0189 632.12 45.499 648.513 46.5286 660.746C47.117 701.606 85.3597 731.748 129.437 733.755C200.137 736.74 308.443 664.465 386.644 558.574C395.175 547.025 413.218 555.197 410.815 569.486C396.058 658.544 335.458 704.297 323.74 713.056C253.579 762.479 241.174 805.785 248.284 836.857C252.108 853.592 262.404 866.266 271.573 874.193C300.255 902.672 348.156 896.36 380.761 865.924C440.233 809.993 466.464 649.296 431.064 500.441C429.496 493.884 423.416 489.431 416.797 489.969H416.846Z" fill="url(#paint3_linear_1162_2540)"/>
<path d="M408.707 436.583C407.187 432.962 404.148 430.271 400.519 428.998C272.21 384.616 251.226 272.118 247.892 253.964C234.605 167.939 201.804 137.796 171.308 130.897C154.883 127.178 139.243 131.141 128.309 136.181C90.753 150.274 75.603 197.152 88.3996 240.311C109.09 309.454 211.708 389.901 335.409 430.173C348.941 434.577 347.323 454.639 333.349 457.135C246.225 472.451 183.908 429.194 171.896 420.826C103.01 369.593 58.9331 371.991 32.5554 389.118C18.3369 398.317 10.051 412.459 5.8345 423.958C-10.9335 461.05 10.7864 505.138 49.6666 526.473C121.004 565.229 278.094 537.239 403.804 453.807C409.345 450.137 411.404 442.797 408.756 436.583" fill="url(#paint4_linear_1162_2540)"/>
</g>
<defs>
<linearGradient id="paint0_linear_1162_2540" x1="484.635" y1="0.0213623" x2="484.635" y2="408.823" gradientUnits="userSpaceOnUse">
<stop stop-color="#947FBB"/>
<stop offset="1" stop-color="#947FBB" stop-opacity="0"/>
</linearGradient>
<linearGradient id="paint1_linear_1162_2540" x1="697.594" y1="164.628" x2="697.594" y2="570.294" gradientUnits="userSpaceOnUse">
<stop stop-color="#947FBB"/>
<stop offset="1" stop-color="#947FBB" stop-opacity="0"/>
</linearGradient>
<linearGradient id="paint2_linear_1162_2540" x1="653.805" y1="478.742" x2="653.805" y2="906.021" gradientUnits="userSpaceOnUse">
<stop stop-color="#947FBB"/>
<stop offset="1" stop-color="#947FBB" stop-opacity="0"/>
</linearGradient>
<linearGradient id="paint3_linear_1162_2540" x1="246.656" y1="489.925" x2="246.656" y2="892.488" gradientUnits="userSpaceOnUse">
<stop stop-color="#947FBB"/>
<stop offset="1" stop-color="#947FBB" stop-opacity="0"/>
</linearGradient>
<linearGradient id="paint4_linear_1162_2540" x1="205.007" y1="129.434" x2="205.007" y2="543.638" gradientUnits="userSpaceOnUse">
<stop stop-color="#947FBB"/>
<stop offset="1" stop-color="#947FBB" stop-opacity="0"/>
</linearGradient>
<clipPath id="clip0_1162_2540">
<rect width="904" height="906" fill="white"/>
</clipPath>
</defs>
</svg>
