<svg width="61" height="62" viewBox="0 0 61 62" fill="none" xmlns="http://www.w3.org/2000/svg">
<g id="Brand-Icons">
<path id="10" fill-rule="evenodd" clip-rule="evenodd" d="M19.3849 10.8624C22.3749 10.8624 24.8161 8.43572 24.8161 5.43122C24.8161 2.42672 22.3749 0 19.3849 0C16.3948 0 13.9536 2.44116 13.9536 5.43122C13.9536 8.42127 16.3948 10.8624 19.3849 10.8624ZM19.3849 3.62563C20.3816 3.62563 21.1905 4.43453 21.1905 5.43122C21.1905 6.4279 20.3816 7.2368 19.3849 7.2368C18.3882 7.2368 17.5793 6.4279 17.5793 5.43122C17.5793 4.43453 18.3882 3.62563 19.3849 3.62563ZM57.9089 20.4393L49.3865 28.9617H44.4753C45.1397 26.405 44.3453 23.7905 42.583 22.0282C42.583 18.027 39.3474 14.8059 35.3462 14.7914C32.5151 11.9603 27.9505 11.9603 25.1193 14.7914C21.1182 14.7914 17.8826 18.027 17.8826 22.0282C16.1348 23.7905 15.3259 26.3905 15.9903 28.9617H11.0791L2.5567 20.4393L0 22.996L8.52237 31.5184V61.5201H51.9432V31.5184L60.4656 22.996L57.9089 20.4393ZM20.8293 24.2527L21.6815 23.6171L21.5371 22.5482C21.1904 20.1504 23.2415 18.1137 25.6394 18.4459L26.6938 18.5904L27.3438 17.7381C28.8028 15.8025 31.6917 15.8025 33.1362 17.7381L33.7862 18.5904L34.8406 18.4459C37.2385 18.0993 39.2752 20.1504 38.9429 22.5482L38.7985 23.6171L39.6508 24.2527C41.1675 25.3794 41.5141 27.4161 40.6185 28.9617H35.3607C36.6174 25.4372 33.9884 21.7104 30.2472 21.7104C26.5061 21.7104 23.8771 25.4372 25.1338 28.9617H19.8759C18.9948 27.445 19.2981 25.4083 20.8437 24.2527H20.8293ZM28.4416 27.1416C28.4416 26.145 29.2506 25.3361 30.2472 25.3361C31.2439 25.3361 32.0528 26.145 32.0528 27.1416C32.0528 28.1383 31.2439 28.9472 30.2472 28.9472C29.2506 28.9472 28.4416 28.1383 28.4416 27.1416ZM48.3465 50.6721H12.1625V32.5873H48.3465V50.6721ZM12.1625 54.2977H48.3465V57.9233H12.1625V54.2977ZM51.9576 18.0992C49.5309 18.0992 47.422 16.6692 46.4975 14.517C44.3452 13.5925 42.9152 11.4836 42.9152 9.05685C42.9152 6.63014 44.3452 4.52121 46.4975 3.59675C47.422 1.44449 49.5309 0.0144588 51.9576 0.0144588C54.3843 0.0144588 56.4932 1.44449 57.4177 3.59675C59.57 4.52121 61 6.63014 61 9.05685C61 11.4836 59.57 13.5925 57.4177 14.517C56.4932 16.6692 54.3843 18.0992 51.9576 18.0992ZM49.4298 6.52903L48.332 6.78903C47.263 7.03459 46.5264 7.95905 46.5264 9.05685C46.5264 10.1547 47.263 11.0791 48.332 11.3247L49.4298 11.5847L49.6898 12.6969C49.9353 13.7658 50.8598 14.5025 51.9576 14.5025C53.0554 14.5025 53.9799 13.7514 54.2254 12.6969L54.4854 11.5847L55.5976 11.3247C56.6666 11.0791 57.4032 10.1547 57.4032 9.05685C57.4032 7.95905 56.6521 7.03459 55.5976 6.78903L54.4854 6.52903L54.2254 5.43123C53.9799 4.36232 53.0554 3.62564 51.9576 3.62564C50.8598 3.62564 49.9353 4.36232 49.6898 5.43123L49.4298 6.52903ZM35.6786 1.82005H32.0529V5.44567H35.6786V1.82005ZM8.53688 14.4881H12.1625V18.1137H8.53688V14.4881Z" fill="#8572A8"/>
</g>
</svg>
