<svg width="45" height="46" viewBox="0 0 45 46" fill="none" xmlns="http://www.w3.org/2000/svg">
<g id="Social Media">
<rect x="1.19025" y="1.55109" width="43.2016" height="43.2016" rx="21.6008" stroke="#8572A8" stroke-width="1.16761"/>
<g id="Group 15">
<path id="Vector" d="M19.0991 23.2081C19.0991 21.1643 20.755 19.5071 22.7982 19.5071C24.8414 19.5071 26.4981 21.1643 26.4981 23.2081C26.4981 25.2519 24.8414 26.9091 22.7982 26.9091C20.755 26.9091 19.0991 25.2519 19.0991 23.2081ZM17.099 23.2081C17.099 26.3567 19.6505 28.9089 22.7982 28.9089C25.9458 28.9089 28.4973 26.3567 28.4973 23.2081C28.4973 20.0595 25.9458 17.5073 22.7982 17.5073C19.6505 17.5073 17.099 20.0595 17.099 23.2081ZM27.3911 17.2812C27.391 17.5447 27.469 17.8024 27.6153 18.0215C27.7615 18.2406 27.9695 18.4115 28.2128 18.5124C28.4561 18.6134 28.7239 18.6398 28.9823 18.5885C29.2407 18.5372 29.478 18.4105 29.6644 18.2242C29.8507 18.038 29.9776 17.8006 30.0291 17.5422C30.0806 17.2838 30.0544 17.0159 29.9537 16.7724C29.8529 16.529 29.6823 16.3208 29.4634 16.1743C29.2444 16.0279 28.9869 15.9496 28.7235 15.9495H28.723C28.3699 15.9497 28.0313 16.09 27.7816 16.3397C27.5318 16.5894 27.3914 16.9281 27.3911 17.2812ZM18.3142 32.245C17.2321 32.1957 16.6439 32.0154 16.2531 31.8631C15.7349 31.6613 15.3652 31.4209 14.9764 31.0326C14.5877 30.6443 14.3471 30.2749 14.1462 29.7565C13.9939 29.3657 13.8136 28.7772 13.7644 27.6948C13.7106 26.5245 13.6999 26.173 13.6999 23.2082C13.6999 20.2434 13.7115 19.8928 13.7644 18.7216C13.8137 17.6392 13.9953 17.0518 14.1462 16.6599C14.348 16.1415 14.5882 15.7717 14.9764 15.3829C15.3646 14.994 15.734 14.7533 16.2531 14.5524C16.6438 14.4 17.2321 14.2197 18.3142 14.1705C19.4841 14.1167 19.8355 14.1059 22.7982 14.1059C25.7608 14.1059 26.1126 14.1176 27.2835 14.1705C28.3656 14.2198 28.9528 14.4014 29.3446 14.5524C29.8628 14.7533 30.2325 14.9946 30.6212 15.3829C31.01 15.7712 31.2497 16.1415 31.4514 16.6599C31.6038 17.0507 31.7841 17.6392 31.8332 18.7216C31.8871 19.8928 31.8978 20.2434 31.8978 23.2082C31.8978 26.173 31.8871 26.5236 31.8332 27.6948C31.784 28.7772 31.6028 29.3655 31.4514 29.7565C31.2497 30.2749 31.0094 30.6447 30.6212 31.0326C30.233 31.4206 29.8628 31.6613 29.3446 31.8631C28.9539 32.0155 28.3656 32.1958 27.2835 32.245C26.1136 32.2988 25.7621 32.3096 22.7982 32.3096C19.8342 32.3096 19.4838 32.2988 18.3142 32.245ZM18.2223 12.1732C17.0407 12.227 16.2334 12.4144 15.5283 12.6889C14.798 12.9723 14.1799 13.3525 13.5622 13.9694C12.9444 14.5864 12.5653 15.2057 12.282 15.9361C12.0076 16.6419 11.8202 17.449 11.7664 18.6309C11.7117 19.8147 11.6992 20.1931 11.6992 23.2081C11.6992 26.2231 11.7117 26.6016 11.7664 27.7853C11.8202 28.9673 12.0076 29.7744 12.282 30.4801C12.5653 31.2101 12.9445 31.8301 13.5622 32.4468C14.1798 33.0634 14.798 33.4431 15.5283 33.7274C16.2347 34.0018 17.0407 34.1892 18.2223 34.243C19.4063 34.2969 19.784 34.3103 22.7982 34.3103C25.8123 34.3103 26.1906 34.2977 27.374 34.243C28.5557 34.1892 29.3625 34.0018 30.0681 33.7274C30.7978 33.4431 31.4165 33.0637 32.0342 32.4468C32.6519 31.8299 33.0302 31.2101 33.3144 30.4801C33.5887 29.7744 33.777 28.9672 33.8299 27.7853C33.8837 26.6007 33.8962 26.2231 33.8962 23.2081C33.8962 20.1931 33.8837 19.8147 33.8299 18.6309C33.7761 17.4489 33.5887 16.6414 33.3144 15.9361C33.0302 15.2061 32.6509 14.5873 32.0342 13.9694C31.4174 13.3515 30.7978 12.9723 30.069 12.6889C29.3625 12.4144 28.5556 12.2261 27.3749 12.1732C26.1915 12.1194 25.8132 12.106 22.7991 12.106C19.7849 12.106 19.4063 12.1185 18.2223 12.1732Z" fill="#8572A8"/>
<path id="Vector_2" d="M19.0991 23.2081C19.0991 21.1643 20.755 19.5071 22.7982 19.5071C24.8414 19.5071 26.4981 21.1643 26.4981 23.2081C26.4981 25.2519 24.8414 26.9091 22.7982 26.9091C20.755 26.9091 19.0991 25.2519 19.0991 23.2081ZM17.099 23.2081C17.099 26.3567 19.6505 28.9089 22.7982 28.9089C25.9458 28.9089 28.4973 26.3567 28.4973 23.2081C28.4973 20.0595 25.9458 17.5073 22.7982 17.5073C19.6505 17.5073 17.099 20.0595 17.099 23.2081ZM27.3911 17.2812C27.391 17.5447 27.469 17.8024 27.6153 18.0215C27.7615 18.2406 27.9695 18.4115 28.2128 18.5124C28.4561 18.6134 28.7239 18.6398 28.9823 18.5885C29.2407 18.5372 29.478 18.4105 29.6644 18.2242C29.8507 18.038 29.9776 17.8006 30.0291 17.5422C30.0806 17.2838 30.0544 17.0159 29.9537 16.7724C29.8529 16.529 29.6823 16.3208 29.4634 16.1743C29.2444 16.0279 28.9869 15.9496 28.7235 15.9495H28.723C28.3699 15.9497 28.0313 16.09 27.7816 16.3397C27.5318 16.5894 27.3914 16.9281 27.3911 17.2812ZM18.3142 32.245C17.2321 32.1957 16.6439 32.0154 16.2531 31.8631C15.7349 31.6613 15.3652 31.4209 14.9764 31.0326C14.5877 30.6443 14.3471 30.2749 14.1462 29.7565C13.9939 29.3657 13.8136 28.7772 13.7644 27.6948C13.7106 26.5245 13.6999 26.173 13.6999 23.2082C13.6999 20.2434 13.7115 19.8928 13.7644 18.7216C13.8137 17.6392 13.9953 17.0518 14.1462 16.6599C14.348 16.1415 14.5882 15.7717 14.9764 15.3829C15.3646 14.994 15.734 14.7533 16.2531 14.5524C16.6438 14.4 17.2321 14.2197 18.3142 14.1705C19.4841 14.1167 19.8355 14.1059 22.7982 14.1059C25.7608 14.1059 26.1126 14.1176 27.2835 14.1705C28.3656 14.2198 28.9528 14.4014 29.3446 14.5524C29.8628 14.7533 30.2325 14.9946 30.6212 15.3829C31.01 15.7712 31.2497 16.1415 31.4514 16.6599C31.6038 17.0507 31.7841 17.6392 31.8332 18.7216C31.8871 19.8928 31.8978 20.2434 31.8978 23.2082C31.8978 26.173 31.8871 26.5236 31.8332 27.6948C31.784 28.7772 31.6028 29.3655 31.4514 29.7565C31.2497 30.2749 31.0094 30.6447 30.6212 31.0326C30.233 31.4206 29.8628 31.6613 29.3446 31.8631C28.9539 32.0155 28.3656 32.1958 27.2835 32.245C26.1136 32.2988 25.7621 32.3096 22.7982 32.3096C19.8342 32.3096 19.4838 32.2988 18.3142 32.245ZM18.2223 12.1732C17.0407 12.227 16.2334 12.4144 15.5283 12.6889C14.798 12.9723 14.1799 13.3525 13.5622 13.9694C12.9444 14.5864 12.5653 15.2057 12.282 15.9361C12.0076 16.6419 11.8202 17.449 11.7664 18.6309C11.7117 19.8147 11.6992 20.1931 11.6992 23.2081C11.6992 26.2231 11.7117 26.6016 11.7664 27.7853C11.8202 28.9673 12.0076 29.7744 12.282 30.4801C12.5653 31.2101 12.9445 31.8301 13.5622 32.4468C14.1798 33.0634 14.798 33.4431 15.5283 33.7274C16.2347 34.0018 17.0407 34.1892 18.2223 34.243C19.4063 34.2969 19.784 34.3103 22.7982 34.3103C25.8123 34.3103 26.1906 34.2977 27.374 34.243C28.5557 34.1892 29.3625 34.0018 30.0681 33.7274C30.7978 33.4431 31.4165 33.0637 32.0342 32.4468C32.6519 31.8299 33.0302 31.2101 33.3144 30.4801C33.5887 29.7744 33.777 28.9672 33.8299 27.7853C33.8837 26.6007 33.8962 26.2231 33.8962 23.2081C33.8962 20.1931 33.8837 19.8147 33.8299 18.6309C33.7761 17.4489 33.5887 16.6414 33.3144 15.9361C33.0302 15.2061 32.6509 14.5873 32.0342 13.9694C31.4174 13.3515 30.7978 12.9723 30.069 12.6889C29.3625 12.4144 28.5556 12.2261 27.3749 12.1732C26.1915 12.1194 25.8132 12.106 22.7991 12.106C19.7849 12.106 19.4063 12.1185 18.2223 12.1732Z" fill="#8572A8"/>
</g>
</g>
</svg>
