<svg width="46" height="46" viewBox="0 0 46 46" fill="none" xmlns="http://www.w3.org/2000/svg">
<g id="Social Media">
<rect x="1.57062" y="1.55109" width="43.2016" height="43.2016" rx="21.6008" stroke="#8572A8" stroke-width="1.16761"/>
<g id="Group">
<path id="Vector" d="M18.0679 32.1419V20.1565H14.0876V32.1419H18.0683H18.0679ZM16.0786 18.5204C17.4663 18.5204 18.3302 17.6001 18.3302 16.4499C18.3042 15.2736 17.4663 14.3789 16.105 14.3789C14.7427 14.3789 13.853 15.2736 13.853 16.4498C13.853 17.6 14.7166 18.5203 16.0525 18.5203H16.0783L16.0786 18.5204ZM20.271 32.1419H24.2509V25.4495C24.2509 25.0917 24.2768 24.7331 24.382 24.4776C24.6696 23.7616 25.3245 23.0204 26.4243 23.0204C27.8641 23.0204 28.4405 24.1194 28.4405 25.7308V32.1419H32.4203V25.2699C32.4203 21.5886 30.457 19.8756 27.8384 19.8756C25.6915 19.8756 24.7486 21.0766 24.2247 21.8946H24.2512V20.157H20.2712C20.3231 21.2813 20.2709 32.1423 20.2709 32.1423L20.271 32.1419Z" fill="#8572A8"/>
</g>
</g>
</svg>
