<svg width="226" height="70" viewBox="0 0 226 70" fill="none" xmlns="http://www.w3.org/2000/svg">
<g clip-path="url(#clip0_1213_85)">
<path d="M3.83331 28.7788C3.28472 28.7788 2.77316 28.6846 2.30198 28.4961C1.8308 28.3076 1.42694 28.0451 1.08365 27.7119C0.743733 27.3787 0.477855 26.985 0.286019 26.5306C0.0941829 26.0763 -0.00341797 25.5815 -0.00341797 25.0464C-0.00341797 24.5113 0.0941829 24.0267 0.286019 23.5723C0.477855 23.118 0.743733 22.7276 1.08365 22.3977C1.42357 22.0679 1.8308 21.8088 2.30198 21.6203C2.77316 21.4318 3.28136 21.3376 3.83331 21.3376C4.38525 21.3376 4.90691 21.4318 5.38146 21.6203C5.856 21.8088 6.26659 22.0679 6.61325 22.3977C6.9599 22.7276 7.23251 23.118 7.42771 23.5723C7.62291 24.0267 7.72051 24.518 7.72051 25.0464C7.72051 25.5748 7.62291 26.0763 7.42771 26.5306C7.23251 26.985 6.9599 27.3787 6.61325 27.7119C6.26659 28.0451 5.856 28.3076 5.38146 28.4961C4.90691 28.6846 4.39199 28.7788 3.83331 28.7788ZM3.83331 28.3245C4.30785 28.3245 4.7521 28.2437 5.16943 28.0855C5.58339 27.9273 5.9435 27.7052 6.2464 27.4158C6.5493 27.1263 6.78826 26.783 6.96326 26.3859C7.13827 25.9888 7.22578 25.5479 7.22578 25.0666C7.22578 24.5853 7.13827 24.168 6.96663 23.7675C6.79499 23.3704 6.5594 23.0237 6.2565 22.7276C5.9536 22.4314 5.59685 22.2025 5.18289 22.0376C4.77229 21.8727 4.32131 21.7886 3.83331 21.7886C3.3453 21.7886 2.90778 21.8727 2.49718 22.0376C2.08995 22.2025 1.7332 22.4348 1.43704 22.7276C1.1375 23.0237 0.90528 23.3704 0.737002 23.7675C0.568725 24.168 0.484586 24.5954 0.484586 25.0565C0.484586 25.5176 0.568725 25.9484 0.737002 26.3455C0.90528 26.7427 1.14087 27.0893 1.43704 27.3821C1.73657 27.6749 2.08995 27.9038 2.49718 28.072C2.90441 28.2403 3.35203 28.3245 3.83331 28.3245ZM3.91744 27.4797C3.5607 27.4797 3.22751 27.4191 2.91788 27.298C2.60825 27.1768 2.339 27.0085 2.11351 26.7931C1.88802 26.5777 1.70965 26.3186 1.58175 26.0191C1.45386 25.7195 1.38992 25.3964 1.38992 25.0464C1.38992 24.7435 1.4404 24.4473 1.54473 24.1545C1.64907 23.8617 1.80051 23.6026 2.00918 23.3704C2.21448 23.1415 2.47362 22.953 2.78662 22.8151C3.09962 22.6737 3.46309 22.603 3.87369 22.603C4.38862 22.603 4.83624 22.7141 5.21318 22.9396C5.59012 23.1617 5.86946 23.4713 6.04783 23.8617L4.95403 24.2118C4.89345 24.0872 4.81941 23.9863 4.73191 23.9021C4.6444 23.818 4.55353 23.7574 4.4593 23.7103C4.3617 23.6665 4.26409 23.6329 4.15976 23.6127C4.05543 23.5925 3.9612 23.5824 3.87033 23.5824C3.6583 23.5824 3.46646 23.6228 3.30491 23.7069C3.14 23.7877 3.00202 23.8988 2.88759 24.0334C2.77316 24.168 2.68902 24.3228 2.62844 24.5012C2.57123 24.6796 2.54094 24.8613 2.54094 25.0464C2.54094 25.2786 2.58132 25.4873 2.65873 25.669C2.73614 25.8508 2.84383 26.0056 2.97173 26.1268C3.10298 26.2513 3.2477 26.3455 3.40925 26.4095C3.57079 26.4734 3.73234 26.5071 3.89052 26.5071C4.10255 26.5071 4.31794 26.4499 4.52997 26.3354C4.742 26.221 4.89682 26.0628 4.99442 25.8575L6.09832 26.1873C6.03101 26.3455 5.93004 26.5003 5.79878 26.6551C5.66753 26.81 5.50935 26.948 5.32424 27.0691C5.13914 27.1903 4.92711 27.2879 4.69152 27.3619C4.45257 27.436 4.19342 27.4763 3.91408 27.4763" fill="#947FBB"/>
<path d="M35.6411 7.68692C39.7605 7.00708 40.8745 3.75932 41.0495 3.24103C41.7967 0.811106 42.8905 0.0774164 43.8194 0.00673989C44.3209 -0.0302811 44.7651 0.148093 45.068 0.339929C46.1181 0.905341 46.3738 2.3256 45.8185 3.517C44.7685 5.75509 40.3394 7.96962 35.7522 8.17829L35.6411 7.68355V7.68692Z" fill="#947FBB"/>
<path d="M123.95 27.4191H121.109V48.4403H108.263V3.68866C103.531 3.68866 99.6908 7.52538 99.6908 12.2573V48.437H86.8512V32.6425C86.8512 29.9366 84.6602 27.7456 81.9544 27.7456H78.2792V48.437H50.8163C51.5601 47.5182 52.2669 46.5287 52.9299 45.4618C60.3139 33.5747 57.8604 21.7616 47.757 15.4849C40.4033 10.9179 30.6601 10.5275 24.4473 17.3763C20.6307 21.6977 21.2601 25.4873 25.9416 28.3951C26.9815 29.0413 28.2638 29.6303 29.6639 30.1923C31.3332 30.8183 32.7164 31.5756 33.9044 32.3126C40.0701 36.1426 41.1606 41.0361 38.1619 45.8657C33.9617 52.6271 17.945 52.4992 11.8904 48.3259C6.53246 44.6877 3.93089 39.2423 5.50933 32.3968L4.76554 31.9357C1.83752 42.7795 6.44159 49.9212 12.3851 53.6132C16.5079 56.1744 22.263 57.3018 26.6551 57.009H129.163V56.8576H129.678V33.1473C129.678 29.9837 127.113 27.4191 123.95 27.4191ZM39.2018 45.6873C40.8072 43.5973 42.5337 40.9688 41.9414 37.6134C41.6385 35.7791 40.7937 34.3252 39.01 33.218C38.0441 32.6189 36.9132 32.1208 35.3718 31.7809C34.0256 31.4611 32.8948 30.963 32.0029 30.4077C28.809 28.4221 28.7518 25.1979 31.9592 21.5261C36.9974 15.9022 44.6136 15.0777 49.5913 18.1672C50.335 18.6283 51.0317 19.1634 51.6341 19.85C56.8137 25.4368 53.0847 34.7527 44.8189 42.591C43.2203 44.1728 41.5173 45.27 39.8042 46.3705C38.5455 47.2355 38.3402 46.9023 39.1985 45.6873" fill="#947FBB"/>
<path d="M225.909 48.7297C220.74 41.1876 214.604 27.6008 202.596 22.7746C194.482 19.5134 188.094 22.0376 185.778 27.7994C183.561 33.3189 186.903 36.7316 192.21 38.2999C200.001 40.4875 216.307 39.3096 224.56 48.5648L174.531 47.3734C174.575 46.7272 174.595 46.0676 174.595 45.3979C174.595 31.4039 166.11 22.3977 154.216 22.3977C145.557 22.3977 137.076 27.2071 135.413 36.3041C134.45 41.9886 136.988 44.8762 142.497 44.8762C143.723 44.8762 145.119 44.7012 146.607 44.4387C148.357 44.0887 149.932 44.0012 151.329 44.0012C158.588 44.0012 162.26 47.848 162.26 53.5324C162.26 61.4919 155.263 65.6887 147.916 65.3387C141.444 65.0762 136.897 61.4919 134.622 54.8449H133.747C136.981 65.6012 145.728 68.5764 152.725 68.5764C161.701 68.5764 169.193 63.7569 172.606 55.7065L222.577 57.009L225.902 48.7297H225.909ZM192.722 33.0396C195.067 27.197 203.545 28.624 207.974 30.4952C215.409 33.5781 219.764 40.7938 223.183 46.1248C209.997 35.0757 189.427 41.2347 192.722 33.0362M166.026 46.9696C165.501 49.1572 164.801 51.2539 163.926 53.0915C163.313 54.4916 162.963 54.3166 163.051 52.829C163.313 50.2072 163.226 46.7946 160.951 44.2603C159.726 42.8602 158.238 42.0727 156.141 42.0727C155.004 42.0727 153.779 42.2477 152.295 42.7727C150.982 43.2102 149.76 43.3853 148.71 43.3853C144.951 43.3853 143.201 40.6726 143.988 35.8633C145.301 28.4288 151.335 23.7069 157.195 23.7069C158.07 23.7069 158.945 23.7944 159.82 24.0569C167.167 26.0695 168.914 35.9508 166.029 46.9696" fill="#947FBB"/>
<path d="M202.105 63.4877C202.842 63.1915 203.04 62.8247 203.04 62.5285C203.04 62.3703 202.973 62.2323 202.906 62.1414C202.704 61.8217 202.259 61.7746 201.903 61.9833C201.331 62.3165 200.826 63.4304 200.718 64.6589C200.708 64.7935 200.526 64.8204 200.476 64.6959C200.163 63.9185 200.422 63.2521 200.472 63.1242C200.789 62.3804 200.678 61.9765 200.472 61.7679C200.361 61.6534 200.22 61.6063 200.109 61.5895C199.745 61.5087 199.399 61.7982 199.288 62.202C199.089 62.9424 199.651 64.3425 200.647 65.3387C200.691 65.3825 200.762 65.3858 200.809 65.3488C200.839 65.3286 200.856 65.295 200.859 65.2579C200.994 63.979 201.95 63.555 202.105 63.4877Z" fill="#947FBB"/>
<path d="M204.73 65.5608C204.235 65.12 203.04 64.9988 201.872 65.3017C201.744 65.3353 201.66 65.1671 201.758 65.0796C202.37 64.5209 203.07 64.5478 203.205 64.5545C203.993 64.6118 204.329 64.3728 204.454 64.1036C204.521 63.9588 204.518 63.8074 204.497 63.693C204.45 63.316 204.067 63.0771 203.659 63.104C202.912 63.1545 201.808 64.1675 201.216 65.4565C201.189 65.5137 201.209 65.581 201.26 65.6181C201.29 65.6382 201.327 65.645 201.361 65.6382C202.586 65.3421 203.289 66.1263 203.404 66.2541C203.922 66.8667 204.326 66.9407 204.598 66.8431C204.747 66.7893 204.851 66.6782 204.911 66.584C205.14 66.2844 205.033 65.8368 204.726 65.5608" fill="#947FBB"/>
<path d="M201.202 66.1229C201.192 66.1599 201.202 66.197 201.219 66.2272C201.896 67.311 201.408 68.2533 201.33 68.4048C200.936 69.1082 201.004 69.5221 201.185 69.7543C201.283 69.8789 201.418 69.9428 201.525 69.9731C201.879 70.0943 202.252 69.8452 202.407 69.4548C202.649 68.8288 202.363 67.6374 201.697 66.6076C201.623 66.4965 201.751 66.3585 201.865 66.4224C202.582 66.8297 202.787 67.5129 202.828 67.6475C203.036 68.4283 203.37 68.674 203.656 68.7077C203.811 68.7245 203.952 68.6706 204.046 68.6134C204.379 68.4451 204.474 67.9942 204.312 67.6105C204.016 66.9037 202.72 66.1734 201.334 66.032C201.273 66.0253 201.216 66.0657 201.199 66.1263" fill="#947FBB"/>
<path d="M200.516 66.1296C200.479 66.1296 200.449 66.1498 200.425 66.1801C199.651 67.1931 198.621 67.0349 198.456 67.008C197.679 66.8599 197.319 67.0619 197.167 67.3143C197.087 67.4489 197.07 67.6037 197.08 67.7148C197.087 68.0951 197.44 68.3744 197.85 68.3946C198.507 68.4215 199.513 67.7518 200.237 66.7657C200.317 66.658 200.482 66.7354 200.462 66.8667C200.324 67.6946 199.762 68.122 199.654 68.2028C199.001 68.6639 198.887 69.0644 198.954 69.3538C198.988 69.5086 199.086 69.6264 199.17 69.7004C199.436 69.9663 199.88 69.9057 200.183 69.623C200.735 69.1014 200.977 67.6071 200.651 66.2238C200.637 66.1633 200.58 66.1229 200.519 66.1262" fill="#947FBB"/>
<path d="M200.442 65.6349C200.429 65.6012 200.398 65.5777 200.365 65.5642C199.173 65.1503 198.978 64.1069 198.948 63.9353C198.827 63.1343 198.52 62.855 198.238 62.791C198.086 62.7574 197.941 62.791 197.837 62.8415C197.487 62.9728 197.349 63.4069 197.467 63.8108C197.659 64.4536 198.611 65.2007 199.759 65.5777C199.883 65.6181 199.87 65.8065 199.739 65.8267C198.931 65.9681 198.352 65.5676 198.241 65.4902C197.602 65.0123 197.191 65.0358 196.949 65.194C196.817 65.2782 196.74 65.4128 196.7 65.5171C196.545 65.8638 196.747 66.271 197.107 66.4696C197.77 66.8297 199.227 66.5705 200.395 65.7931C200.445 65.7594 200.466 65.6887 200.442 65.6315" fill="#947FBB"/>
<path d="M118.393 66.8768C118.393 68.5494 117.037 69.9091 115.361 69.9091C113.685 69.9091 112.329 68.5528 112.329 66.8768C112.329 65.2007 113.685 63.8478 115.361 63.8478C117.037 63.8478 118.393 65.2041 118.393 66.8768Z" fill="#947FBB"/>
<path d="M126.332 66.8768C126.332 68.5494 124.976 69.9091 123.3 69.9091C121.624 69.9091 120.268 68.5528 120.268 66.8768C120.268 65.2007 121.624 63.8478 123.3 63.8478C124.976 63.8478 126.332 65.2041 126.332 66.8768Z" fill="#947FBB"/>
<path d="M81.6248 66.8768C81.6248 68.5494 80.2685 69.9091 78.5924 69.9091C76.9164 69.9091 75.5601 68.5528 75.5601 66.8768C75.5601 65.2007 76.9164 63.8478 78.5924 63.8478C80.2685 63.8478 81.6248 65.2041 81.6248 66.8768Z" fill="#947FBB"/>
<path d="M89.5637 66.8768C89.5637 68.5494 88.2074 69.9091 86.5314 69.9091C84.8553 69.9091 83.499 68.5528 83.499 66.8768C83.499 65.2007 84.8553 63.8478 86.5314 63.8478C88.2074 63.8478 89.5637 65.2041 89.5637 66.8768Z" fill="#947FBB"/>
</g>
<defs>
<clipPath id="clip0_1213_85">
<rect width="225.909" height="70" fill="white"/>
</clipPath>
</defs>
</svg>
