<svg width="74" height="52" viewBox="0 0 74 52" fill="none" xmlns="http://www.w3.org/2000/svg">
<g id="mc_symbol 1">
<g id="Group">
<g id="Group_2">
<path id="Vector" d="M44.5457 13.0488H29.4663V39.728H44.5457V13.0488Z" fill="#FF5F00"/>
<path id="Vector_2" d="M30.4209 26.3881C30.4185 23.8187 31.0099 21.2824 32.1503 18.9713C33.2907 16.6602 34.9502 14.6348 37.0031 13.0485C34.4608 11.0811 31.4076 9.85756 28.1924 9.5178C24.9772 9.17805 21.7298 9.73574 18.8213 11.1272C15.9128 12.5186 13.4606 14.6876 11.745 17.3863C10.0294 20.085 9.11963 23.2044 9.11963 26.3881C9.11963 29.5718 10.0294 32.6912 11.745 35.3899C13.4606 38.0885 15.9128 40.2576 18.8213 41.649C21.7298 43.0404 24.9772 43.5981 28.1924 43.2584C31.4076 42.9186 34.4608 41.6951 37.0031 39.7277C34.9502 38.1413 33.2907 36.1159 32.1503 33.8048C31.0099 31.4937 30.4186 28.9575 30.4209 26.3881Z" fill="#EB001B"/>
<path id="Vector_3" d="M64.8846 26.3881C64.8847 29.5717 63.9751 32.6911 62.2596 35.3898C60.544 38.0885 58.0919 40.2575 55.1835 41.6489C52.2751 43.0404 49.0277 43.5981 45.8126 43.2584C42.5974 42.9186 39.5442 41.6951 37.002 39.7277C39.0531 38.1397 40.7113 36.114 41.8515 33.8033C42.9917 31.4925 43.5842 28.9571 43.5842 26.3881C43.5842 23.8191 42.9917 21.2836 41.8515 18.9729C40.7113 16.6621 39.0531 14.6364 37.002 13.0485C39.5442 11.0811 42.5974 9.85755 45.8126 9.5178C49.0277 9.17805 52.2751 9.73577 55.1835 11.1272C58.0919 12.5187 60.544 14.6877 62.2596 17.3863C63.9751 20.085 64.8847 23.2044 64.8846 26.3881Z" fill="#F79E1B"/>
<g id="Union">
<path fill-rule="evenodd" clip-rule="evenodd" d="M62.2597 35.3898C63.9752 32.6911 64.8849 29.5717 64.8848 26.3881C64.8849 23.2044 63.9752 20.085 62.2597 17.3863C60.5442 14.6877 58.0921 12.5187 55.1837 11.1272C52.2753 9.73577 49.0279 9.17805 45.8127 9.5178C42.5977 9.85753 39.5446 11.0809 37.0025 13.0482C34.4603 11.0811 31.4073 9.85777 28.1924 9.51805C24.9772 9.17829 21.7298 9.73599 18.8213 11.1274C15.9128 12.5188 13.4606 14.6879 11.745 17.3865C10.0294 20.0852 9.11963 23.2046 9.11963 26.3883C9.11963 29.572 10.0294 32.6914 11.745 35.3901C13.4606 38.0888 15.9128 40.2578 18.8213 41.6492C21.7298 43.0407 24.9772 43.5984 28.1924 43.2586C31.4073 42.9189 34.4603 41.6956 37.0024 39.7285H37.0031C39.5452 41.6954 42.598 42.9187 45.8127 43.2584C49.0279 43.5981 52.2753 43.0404 55.1837 41.6489C58.0921 40.2575 60.5442 38.0885 62.2597 35.3898ZM37.0028 13.049L37.0025 13.0493H37.0031C37.003 13.0492 37.0029 13.0491 37.0028 13.049Z" fill="#8572A8" style="mix-blend-mode:color"/>
</g>
</g>
</g>
</g>
</svg>
