<svg width="46" height="46" viewBox="0 0 46 46" fill="none" xmlns="http://www.w3.org/2000/svg">
<g id="Icon">
<g id="Icon/Glyph/25/Shipping">
<g id="iconspace_Money_25px">
<path id="path" fill-rule="evenodd" clip-rule="evenodd" d="M10.4439 4.33301H35.3328C38.7692 4.33301 41.555 7.11879 41.555 10.5552V22.9997C41.555 26.4361 38.7692 29.2219 35.3328 29.2219H10.4439C7.00746 29.2219 4.22168 26.4361 4.22168 22.9997V10.5552C4.22168 7.11879 7.00746 4.33301 10.4439 4.33301ZM41.555 28.333V27.4441C41.555 27.4441 40.2118 30.6982 35.3328 30.9997H10.4439C5.46048 30.6317 4.22169 27.4441 4.22169 27.4441V28.333C4.22169 31.7694 7.00747 34.5552 10.4439 34.5552H35.3328C38.7692 34.5552 41.555 31.7694 41.555 28.333ZM41.5552 33.6667V32.7778C41.5552 32.7778 40.2121 36.0319 35.333 36.3333H10.4441C5.4607 35.9654 4.22191 32.7778 4.22191 32.7778V33.6667C4.22191 37.1031 7.00769 39.8889 10.4441 39.8889H35.333C38.7695 39.8889 41.5552 37.1031 41.5552 33.6667ZM26.4439 11.4441H23.7772V10.5552C23.7772 10.0643 23.3793 9.66634 22.8884 9.66634C22.3974 9.66634 21.9995 10.0643 21.9995 10.5552V11.4441H21.1354C19.6626 11.4441 18.4687 12.638 18.4687 14.1108V15.001C18.4687 16.4738 19.6626 17.6677 21.1354 17.6677H24.6661C25.1571 17.6677 25.555 18.0657 25.555 18.5566V19.4441C25.555 19.935 25.1571 20.333 24.6661 20.333H20.2435C20.2069 19.8883 19.8412 19.5324 19.3846 19.5185C18.8939 19.5036 18.484 19.8893 18.4691 20.38L18.4443 21.1949C18.4291 21.6961 18.8313 22.1108 19.3328 22.1108H21.9995V22.9841C21.9995 23.475 22.3974 23.873 22.8884 23.873C23.3793 23.873 23.7772 23.475 23.7772 22.9841V22.1108H24.6661C26.1389 22.1108 27.3328 20.9169 27.3328 19.4441V18.5566C27.3328 17.0838 26.1389 15.8899 24.6661 15.8899H21.1354C20.6445 15.8899 20.2465 15.4919 20.2465 15.001V14.1108C20.2465 13.6199 20.6445 13.2219 21.1354 13.2219H25.5814C25.6779 13.6085 26.0275 13.8949 26.4439 13.8949C26.9348 13.8949 27.3328 13.4969 27.3328 13.006V12.333C27.3328 11.8421 26.9348 11.4441 26.4439 11.4441Z" fill="#947FBB"/>
</g>
</g>
</g>
</svg>
