<svg width="51" height="24" viewBox="0 0 51 24" fill="none" xmlns="http://www.w3.org/2000/svg">
<g id="Frame" clip-path="url(#clip0_1162_2548)">
<path id="XMLID_1_" d="M38.077 3.97122C37.8558 5.03937 37.2706 6.24773 36.4588 7.1932C37.5982 6.74476 38.7266 6.27313 39.8463 5.78039C39.8994 5.66362 39.9526 5.54684 40.0079 5.43005C39.977 5.34139 39.9891 5.2228 40.0746 5.09521C41.4144 3.10051 43.5408 1.44504 45.9675 0.974551C47.2983 0.717293 50.3183 0.748264 49.8301 2.82566C49.4089 4.61476 47.312 5.87007 45.7183 6.52496C43.9394 7.25526 41.6827 7.62505 39.9983 6.49667C39.9381 6.52673 39.8734 6.53778 39.8084 6.52133C39.7716 6.51101 39.7456 6.49427 39.7238 6.47327C38.3781 7.06076 37.0235 7.6208 35.6535 8.14498C37.142 8.47276 38.6562 9.3696 39.8111 10.1654C41.0355 11.0093 42.7547 12.4696 41.7143 14.058C40.6611 15.6676 38.2109 14.9743 36.8104 14.2671C34.7551 13.2282 33.7598 10.9055 34.0896 8.72982C31.4591 9.68427 28.7846 10.5205 26.0636 11.2111C27.8799 12.0634 29.6706 13.2609 30.9067 14.8221C31.8943 16.0677 32.5727 18.1705 31.1669 19.4165C29.8963 20.5431 27.8993 19.4932 26.8322 18.5931C25.0001 17.0489 23.8932 14.5387 24.4507 12.1878C24.4842 12.05 24.6 11.937 24.7206 11.879C24.7629 11.756 24.803 11.6308 24.8475 11.5099C24.5564 11.5797 24.2653 11.6495 23.9742 11.7151C21.3562 12.3055 18.7305 12.7309 16.0996 13.0272C18.9233 14.5875 22.495 18.3241 20.4114 21.4098C19.9113 22.1499 19.1128 22.8371 18.1556 22.7975C16.9823 22.7488 16.0846 21.6782 15.5251 20.7723C14.2421 18.7015 13.9467 16.1007 14.6103 13.7829C14.529 13.5931 14.4628 13.3967 14.4095 13.1982C11.981 13.419 9.54752 13.534 7.10038 13.5602C9.71524 15.5114 12.131 19.7876 9.52461 22.2761C6.71871 24.9522 4.79765 20.681 4.40743 18.4047C4.14127 16.8512 4.0451 14.9114 5.03109 13.5647C3.63563 13.5537 0.83336 13.4576 0.83336 13.4576L0.867167 12.759C0.867167 12.759 3.56801 12.8685 4.91824 12.8968C4.30232 11.3671 5.25838 9.16987 5.85575 7.84716C6.71675 5.94482 8.41572 3.43117 10.8805 3.74762C11.9745 3.88781 13.0466 4.58259 13.2383 5.70065C13.4097 6.69612 12.9593 7.73208 12.4708 8.57998C11.2826 10.6434 9.5145 11.9619 7.41759 12.921C8.66173 12.9162 9.90572 12.8881 11.1473 12.8219C12.1966 12.7678 13.2437 12.6882 14.2884 12.5896C14.1418 11.4374 14.3618 10.1978 14.6608 9.13121C15.1008 7.55782 15.8913 5.7618 17.3382 4.83287C18.6175 4.01097 20.499 4.32954 21.2887 5.68662C22.0849 7.05424 20.9952 8.69583 20.0997 9.72233C19.3049 10.6317 18.2772 11.5809 17.146 12.2641C19.688 11.9283 22.2119 11.4634 24.7069 10.8824C24.7002 10.8634 24.6958 10.8423 24.6934 10.8169C24.4436 8.54382 24.841 6.15178 26.585 4.4885C27.5396 3.57796 29.9238 2.62106 30.4107 4.52631C30.7597 5.88659 29.6373 7.48187 28.8584 8.49906C28.4305 9.0566 27.9252 9.67819 27.3524 10.2177C29.3164 9.68925 31.2625 9.08894 33.1823 8.41898C33.5334 8.29581 33.8824 8.16842 34.2336 8.04102C34.2357 8.03254 34.2378 8.02406 34.2399 8.01558C34.2526 7.97528 34.2717 7.93705 34.2952 7.90302C33.9498 6.72894 34.0882 5.27201 34.2421 4.14932C34.3858 3.11558 34.7156 1.24038 35.9988 0.966536C37.6896 0.602972 38.3275 2.77376 38.077 3.97122Z" fill="#947FBB"/>
</g>
<defs>
<clipPath id="clip0_1162_2548">
<rect width="49.1267" height="21.997" fill="white" transform="matrix(-0.999974 0.00726251 0.00726251 0.999974 49.8716 0.823486)"/>
</clipPath>
</defs>
</svg>
