<svg width="45" height="46" viewBox="0 0 45 46" fill="none" xmlns="http://www.w3.org/2000/svg">
<g id="Icon">
<g id="Icon/Glyph/25/Shipping">
<g id="iconspace_Headset A_25px">
<path id="Path" fill-rule="evenodd" clip-rule="evenodd" d="M41.3333 28.6375C40.6121 27.7461 39.7031 27.0129 38.6667 26.4978V22.9996C38.6667 13.9175 31.7487 7.05339 22.6667 7.05339C13.5847 7.05339 6.66667 13.9175 6.66667 22.9996V26.4978C5.63019 27.0129 4.72127 27.7461 4 28.6375V22.9996C4 12.4448 12.1119 4.38672 22.6667 4.38672C33.2214 4.38672 41.3333 12.4448 41.3333 22.9996V28.6375ZM9.41217 27.4966C9.36056 27.7676 9.33355 28.0473 9.33355 28.3332V38.9999C9.33355 39.2859 9.36056 39.5656 9.41217 39.8365C6.35856 39.4394 4.00021 36.8284 4.00021 33.6666C4.00021 30.5047 6.35856 27.8937 9.41217 27.4966ZM36 38.9999C36 39.2859 35.9729 39.5656 35.9213 39.8365C38.9749 39.4394 41.3333 36.8284 41.3333 33.6666C41.3333 30.5047 38.9749 27.8937 35.9213 27.4966C35.9729 27.7676 36 28.0473 36 28.3332V38.9999ZM13.7778 25.6662H15.5555C17.0283 25.6662 18.2222 26.8601 18.2222 28.3329V38.9996C18.2222 40.4723 17.0283 41.6662 15.5555 41.6662H13.7778C12.305 41.6662 11.1111 40.4723 11.1111 38.9996V28.3329C11.1111 26.8601 12.305 25.6662 13.7778 25.6662ZM31.5556 25.6662H29.7778C28.305 25.6662 27.1111 26.8601 27.1111 28.3329V38.9996C27.1111 40.4723 28.305 41.6662 29.7778 41.6662H31.5556C33.0283 41.6662 34.2222 40.4723 34.2222 38.9996V28.3329C34.2222 26.8601 33.0283 25.6662 31.5556 25.6662Z" fill="#947FBB"/>
</g>
</g>
</g>
</svg>
