<svg width="52" height="64" viewBox="0 0 52 64" fill="none" xmlns="http://www.w3.org/2000/svg">
<g id="Brand-Icons">
<path id="8" fill-rule="evenodd" clip-rule="evenodd" d="M45.7836 4.05541C48.5038 4.52054 50.7586 6.4247 51.6314 9.09924C52.5042 11.7592 51.7914 14.6373 49.8712 16.6141C50.2349 19.3177 49.1148 22.0504 46.86 23.6929L46.7291 23.7801L31.6296 43.752V50.5691L36.11 64H15.89L20.3704 50.5691V43.752L5.27088 23.7947C5.24906 23.7801 5.2236 23.762 5.19815 23.7438L5.19813 23.7438C5.17268 23.7256 5.14724 23.7075 5.12542 23.6929C2.87068 22.0504 1.75058 19.3177 2.1288 16.6141C0.208627 14.6518 -0.504173 11.7592 0.368632 9.09924C1.24144 6.43924 3.49619 4.52054 6.21643 4.05541C7.49654 1.58436 10.0713 0 12.8643 0C15.6573 0 18.1593 1.5553 19.454 3.9682C22.3488 4.43333 24.7053 6.52645 25.4763 9.40449C25.84 9.37542 26.1891 9.37542 26.5237 9.40449C27.2947 6.51191 29.6658 4.43333 32.546 3.9682C33.8261 1.5553 36.2845 0 39.1357 0C41.9869 0 44.518 1.58436 45.7836 4.05541ZM29.9567 16.992L29.5349 15.6984H29.5058C28.9966 14.1431 27.6001 13.1111 25.9709 13.1111C24.3417 13.1111 22.9161 14.1721 22.4215 15.742L22.0142 17.0502H20.6323C18.9885 17.0502 17.5483 18.0822 17.0538 19.623C16.5592 21.1638 17.1119 22.8353 18.4211 23.7947L19.5122 24.5941L19.1048 25.8733C18.6248 27.414 19.163 29.0856 20.4577 30.0304C21.7814 30.9752 23.5562 30.9607 24.8799 29.9868L26 29.1583L27.1201 29.9868C28.4439 30.9752 30.2186 30.9898 31.5423 30.0304C32.8661 29.0856 33.3898 27.385 32.8806 25.8297L32.4442 24.5215L33.5498 23.722C34.8735 22.7627 35.4263 21.0911 34.9317 19.5503C34.4226 17.995 32.9679 16.963 31.3241 16.992H29.9567ZM37.5501 24.8848C37.3028 25.2482 37.0119 25.5971 36.7064 25.9169C37.1137 28.6495 35.9936 31.4113 33.7098 33.0684C31.4259 34.7254 28.4439 34.9289 25.9709 33.6934C24.909 34.2312 23.7598 34.4928 22.6106 34.4928C21.0832 34.4928 19.5412 34.0132 18.232 33.0684C15.9627 31.4258 14.8427 28.6932 15.2209 25.9895C14.8863 25.6407 14.5954 25.2628 14.3335 24.8703C13.8098 24.7395 13.3152 24.5505 12.8352 24.318C12.1951 24.6377 11.526 24.8558 10.8423 24.9866L23.1488 41.2519H28.793L41.0995 24.9866C40.4158 24.8558 39.7467 24.6377 39.1066 24.318C38.612 24.5651 38.0883 24.754 37.5501 24.8848ZM27.8474 45.002H24.0944V48.9993H27.8474V45.002ZM7.48199 7.68929C5.83821 7.68929 4.39809 8.72132 3.9035 10.2621H3.8744C3.37981 11.8029 3.93259 13.4744 5.2418 14.4338L6.33281 15.2332L5.9255 16.5124C5.44546 18.0531 5.98368 19.7247 7.27834 20.6695C8.60209 21.6143 10.3768 21.5998 11.7005 20.6259C12.7043 19.8846 13.2716 18.9834 13.4462 18.4747C14.319 15.8001 16.5882 13.896 19.2939 13.4308C19.9049 12.268 20.7923 11.2941 21.8542 10.5964L21.8409 10.5359C21.8159 10.4218 21.7894 10.3004 21.7523 10.1894C21.2578 8.66318 19.8322 7.63116 18.1884 7.63116H16.7919L16.3701 6.33749C15.8609 4.78218 14.479 3.75016 12.8352 3.75016C11.1914 3.75016 9.76582 4.79673 9.27123 6.3811L8.86393 7.68929H7.48199ZM23.5416 52.764L21.0396 60.2644H30.8441L28.342 52.764H23.5416ZM45.5508 15.2332L46.6418 14.4338H46.6564C47.9656 13.4599 48.5184 11.7883 48.0238 10.2621C47.5146 8.73586 46.0745 7.70383 44.4453 7.70383H43.0633L42.656 6.39563C42.1469 4.82579 40.6922 3.7647 39.0921 3.7647C37.4919 3.7647 36.0664 4.81126 35.5572 6.35203L35.1208 7.63116H33.7534C32.066 7.61662 30.6404 8.66318 30.1458 10.1894C30.0876 10.3348 30.0585 10.4656 30.0294 10.6109C31.0623 11.2941 31.9205 12.2244 32.517 13.3436C35.2663 13.7797 37.5647 15.6984 38.4375 18.402C38.612 18.9398 39.1793 19.8846 40.1831 20.6259C41.5068 21.6143 43.2961 21.6289 44.6053 20.6695C45.9 19.7247 46.4382 18.0531 45.9581 16.5124L45.5508 15.2332ZM10.9877 11.2359H14.7407V14.9861H10.9877V11.2359ZM41.0122 11.2359H37.2592V14.9861H41.0122V11.2359ZM24.1234 20.6113H27.8765V24.3615H24.1234V20.6113Z" fill="white"/>
</g>
</svg>
