<svg width="50" height="24" viewBox="0 0 50 24" fill="none" xmlns="http://www.w3.org/2000/svg">
<g id="Frame" clip-path="url(#clip0_1162_2545)">
<path id="XMLID_1_" d="M12.6093 4.09713C12.827 5.14851 13.4031 6.33788 14.2021 7.2685C13.0806 6.82711 11.9699 6.36288 10.8678 5.87789C10.8155 5.76295 10.7632 5.648 10.7088 5.53305C10.7392 5.44579 10.7273 5.32906 10.6431 5.20347C9.32431 3.2401 7.2313 1.61063 4.84279 1.14754C3.53282 0.894323 0.560297 0.924808 1.04083 2.96957C1.45539 4.73057 3.51937 5.96616 5.08801 6.61076C6.83896 7.32959 9.06022 7.69357 10.7181 6.58291C10.7775 6.6125 10.8412 6.62338 10.9051 6.60718C10.9413 6.59703 10.9669 6.58055 10.9883 6.55988C12.3129 7.13814 13.6463 7.68938 14.9947 8.20533C13.5296 8.52796 12.0392 9.41071 10.9024 10.194C9.69725 11.0246 8.00506 12.4621 9.02912 14.0254C10.0658 15.6097 12.4775 14.9274 13.856 14.2313C15.879 13.2087 16.8587 10.9225 16.5341 8.78098C19.1233 9.72044 21.7558 10.5436 24.434 11.2233C22.6462 12.0622 20.8836 13.2409 19.667 14.7776C18.6949 16.0036 18.0272 18.0734 19.4109 19.2998C20.6615 20.4087 22.6271 19.3753 23.6775 18.4893C25.4808 16.9694 26.5703 14.4986 26.0216 12.1847C25.9886 12.049 25.8746 11.9378 25.7559 11.8807C25.7143 11.7596 25.6748 11.6364 25.631 11.5174C25.9175 11.5861 26.204 11.6548 26.4906 11.7194C29.0675 12.3005 31.6519 12.7192 34.2415 13.0109C31.4622 14.5466 27.9465 18.2245 29.9974 21.2618C30.4896 21.9902 31.2756 22.6666 32.2178 22.6276C33.3726 22.5798 34.2562 21.526 34.807 20.6343C36.0698 18.596 36.3605 16.0361 35.7074 13.7547C35.7874 13.5678 35.8526 13.3746 35.905 13.1792C38.2953 13.3965 40.6906 13.5097 43.0993 13.5355C40.5255 15.456 38.1477 19.665 40.7132 22.1144C43.475 24.7486 45.3659 20.5444 45.75 18.3039C46.0119 16.7748 46.1066 14.8654 45.1361 13.5399C46.5096 13.5291 49.2679 13.4345 49.2679 13.4345L49.2346 12.7469C49.2346 12.7469 46.5762 12.8547 45.2472 12.8825C45.8534 11.3768 44.9124 9.21412 44.3244 7.91219C43.4769 6.03973 41.8046 3.56556 39.3786 3.87705C38.3018 4.01503 37.2465 4.6989 37.0578 5.7994C36.8891 6.77923 37.3324 7.79892 37.8133 8.6335C38.9828 10.6645 40.7231 11.9623 42.7871 12.9063C41.5625 12.9016 40.3381 12.8739 39.116 12.8088C38.0831 12.7555 37.0525 12.6772 36.0242 12.5802C36.1685 11.446 35.952 10.2259 35.6577 9.17607C35.2246 7.62739 34.4465 5.85958 33.0223 4.94525C31.7631 4.13626 29.9111 4.44983 29.1339 5.78559C28.3502 7.13172 29.4228 8.74753 30.3042 9.7579C31.0865 10.653 32.0981 11.5872 33.2115 12.2598C30.7094 11.9292 28.2252 11.4716 25.7694 10.8997C25.7759 10.881 25.7803 10.8602 25.7826 10.8353C26.0285 8.5979 25.6374 6.24344 23.9208 4.60629C22.9811 3.71005 20.6344 2.76819 20.1551 4.64351C19.8116 5.98242 20.9164 7.55264 21.6831 8.55385C22.1043 9.10263 22.6016 9.71446 23.1654 10.2455C21.2323 9.72534 19.3167 9.13446 17.4272 8.47503C17.0815 8.35379 16.738 8.2284 16.3923 8.103C16.3903 8.09465 16.3882 8.08631 16.3861 8.07796C16.3737 8.03829 16.3548 8.00066 16.3317 7.96717C16.6717 6.81153 16.5354 5.37749 16.384 4.27244C16.2426 3.25494 15.9179 1.40919 14.6548 1.13965C12.9906 0.781798 12.3627 2.91849 12.6093 4.09713Z" fill="#947FBB"/>
</g>
<defs>
<clipPath id="clip0_1162_2545">
<rect width="49.141" height="22.0034" fill="white" transform="translate(0.606445 0.820068) rotate(0.416115)"/>
</clipPath>
</defs>
</svg>
