<svg width="45" height="46" viewBox="0 0 45 46" fill="none" xmlns="http://www.w3.org/2000/svg">
<g id="Social Media">
<rect x="0.950992" y="1.55109" width="43.2016" height="43.2016" rx="21.6008" stroke="#8572A8" stroke-width="1.16761"/>
<g id="Capa 2">
<g id="ELEMENTS">
<path id="Vector" d="M33.5632 16.1275C32.8306 16.4431 32.0604 16.6628 31.2717 16.7813C31.6404 16.718 32.183 16.0537 32.399 15.7848C32.7271 15.3792 32.9772 14.9161 33.1365 14.4192C33.1365 14.3823 33.1734 14.3296 33.1365 14.3032C33.1179 14.293 33.0971 14.2877 33.0759 14.2877C33.0547 14.2877 33.0339 14.293 33.0153 14.3032C32.1589 14.7674 31.2474 15.1217 30.3024 15.3577C30.2694 15.3678 30.2344 15.3687 30.201 15.3603C30.1676 15.352 30.1371 15.3346 30.1127 15.3102C30.0392 15.2226 29.96 15.1398 29.8757 15.0624C29.4902 14.7168 29.0529 14.4339 28.5798 14.2241C27.9411 13.9618 27.2512 13.8483 26.5622 13.8919C25.8937 13.9342 25.241 14.1137 24.6447 14.4192C24.0575 14.7413 23.5415 15.1789 23.1275 15.7057C22.6921 16.2479 22.3778 16.8771 22.2057 17.5511C22.0637 18.1921 22.0476 18.8547 22.1583 19.5019C22.1583 19.6126 22.1583 19.6285 22.0634 19.6126C18.3075 19.059 15.2258 17.7251 12.7077 14.8621C12.5971 14.7355 12.5391 14.7355 12.4496 14.8621C11.3539 16.5282 11.8859 19.1645 13.2556 20.4668C13.4399 20.6408 13.6296 20.8095 13.8298 20.9677C13.2018 20.9231 12.5892 20.7527 12.0282 20.4668C11.9228 20.3983 11.8649 20.4352 11.8596 20.5617C11.8447 20.7371 11.8447 20.9135 11.8596 21.089C11.9695 21.9297 12.3006 22.7262 12.8189 23.3969C13.3372 24.0676 14.0242 24.5885 14.8096 24.9063C15.0011 24.9884 15.2006 25.0502 15.4049 25.0908C14.8235 25.2054 14.2273 25.2232 13.6401 25.1435C13.5137 25.1172 13.4663 25.1857 13.5137 25.307C14.2881 27.416 15.9685 28.0593 17.2012 28.4178C17.3698 28.4442 17.5383 28.4442 17.728 28.4863C17.728 28.4863 17.728 28.4863 17.6964 28.518C17.3329 29.1823 15.8632 29.6305 15.1889 29.8625C13.9581 30.3049 12.6459 30.4741 11.3433 30.3581C11.1379 30.3265 11.0905 30.3317 11.0378 30.3581C10.9851 30.3845 11.0378 30.4425 11.0957 30.4952C11.3591 30.6692 11.6225 30.8221 11.8965 30.9697C12.712 31.4149 13.5741 31.7685 14.4672 32.0242C19.0924 33.3002 24.297 32.3617 27.7685 28.9081C30.4973 26.1981 31.456 22.4598 31.456 18.7163C31.456 18.574 31.6299 18.4896 31.73 18.4158C32.4203 17.8774 33.029 17.2416 33.5368 16.5282C33.6248 16.4219 33.6699 16.2865 33.6633 16.1486C33.6633 16.0695 33.6633 16.0853 33.5632 16.1275Z" fill="#8572A8"/>
</g>
</g>
</g>
</svg>
