<svg width="61" height="66" viewBox="0 0 61 66" fill="none" xmlns="http://www.w3.org/2000/svg">
<g id="Brand-Icons">
<path id="12" fill-rule="evenodd" clip-rule="evenodd" d="M12.6943 22.2255C10.2509 22.2255 7.82158 21.2987 5.95395 19.4311L0.561696 14.0388C0.196595 13.6878 0 13.1963 0 12.6908C0 12.1852 0.196595 11.6938 0.561696 11.3427C2.76634 9.13806 5.78544 8.23936 8.65007 8.64658C8.24285 5.78195 9.14156 2.76283 11.3462 0.558183C12.0905 -0.186061 13.2981 -0.186061 14.0423 0.558183L19.4346 5.95046C22.6969 9.22517 23.0884 14.2942 20.6089 17.9995C23.578 21.3634 25.3038 24.9248 26.087 26.8033H28.5902V18.6458C26.3532 17.6202 24.7848 14.8241 24.7848 11.441C24.7848 9.58741 25.2622 7.00364 26.0064 4.8692C27.1298 1.63946 28.6324 0.010542 30.5 0.010542C32.3676 0.010542 33.8701 1.63946 34.9935 4.8692C35.7378 7.00364 36.2152 9.58741 36.2152 11.441C36.2152 14.8131 34.6468 17.6157 32.4097 18.6443V26.8033H34.9072C35.6865 24.9314 37.4095 21.3684 40.3778 18.0005C37.8987 14.2963 38.2945 9.23536 41.5654 5.96449L46.9576 0.572239C47.7019 -0.172005 48.9095 -0.172005 49.6538 0.572239C51.4512 2.36966 52.4482 4.7709 52.4482 7.31257C52.4482 7.76192 52.4201 8.22531 52.3499 8.66062C55.2145 8.25339 58.2336 9.1521 60.4383 11.3567C60.8034 11.7078 61 12.1993 61 12.7048C61 13.2103 60.8034 13.7018 60.4383 14.0529L55.046 19.4451C53.1924 21.2987 50.7491 22.2255 48.3057 22.2255C46.4871 22.2255 44.6763 21.7121 43.0991 20.6853C41.2227 22.8595 39.9156 25.1348 39.0987 26.8033H41.9164C42.6887 26.8033 43.3768 27.2667 43.6717 27.9828C43.9666 28.699 43.798 29.5134 43.2504 30.0611C42.3517 30.9738 39.9926 33.8806 39.9926 36.338C39.9926 37.2138 41.1899 38.6676 42.3583 40.0863L42.3583 40.0864L42.3938 40.1294C44.5985 42.7834 47.6176 46.4345 47.6176 51.588C47.6176 55.9271 46.2695 59.2972 43.5874 61.6142C41.0036 63.861 37.2262 65.0125 32.3816 65.0546H32.3676H28.5762C23.7315 65.0125 19.9542 63.861 17.3704 61.6142C14.7023 59.2972 13.3402 55.9271 13.3402 51.588C13.3402 46.451 16.3399 42.8209 18.5427 40.1552L18.564 40.1294C19.7435 38.7112 20.9652 37.2367 20.9652 36.338C20.9652 33.8806 18.6201 30.9738 17.7074 30.0611C17.1597 29.5134 17.0053 28.699 17.3002 27.9828C17.595 27.2667 18.2831 26.8033 19.0555 26.8033H21.8989C21.0817 25.1322 19.7735 22.8567 17.8908 20.684C16.3191 21.7078 14.5067 22.2255 12.6943 22.2255ZM4.8446 12.9295L8.65007 16.735C10.8828 18.9677 14.5057 18.9677 16.7385 16.735C18.9712 14.5022 18.9712 10.8793 16.7385 8.64658L12.9189 4.8411C11.9079 6.96149 12.273 9.58742 14.0423 11.3427C14.4215 11.7078 14.604 12.1993 14.604 12.6908C14.604 13.1822 14.4215 13.6597 14.0423 14.0388C13.2981 14.7831 12.0905 14.7831 11.3462 14.0388C9.59092 12.2835 6.96499 11.9044 4.8446 12.9154V12.9295ZM44.3777 16.862C44.3412 16.8183 44.3025 16.7759 44.2615 16.7349C44.2216 16.6951 44.1805 16.6574 44.1382 16.6218C42.0296 14.3808 42.0707 10.8514 44.2615 8.66062L48.0715 4.85059C48.4337 5.60641 48.6287 6.44557 48.6287 7.31257C48.6287 8.84318 48.0389 10.2755 46.9576 11.3567C46.5785 11.7359 46.396 12.2133 46.396 12.7048C46.396 13.1963 46.5925 13.6878 46.9576 14.0529C47.7019 14.7971 48.9095 14.7971 49.6538 14.0529C51.4091 12.2976 54.035 11.9325 56.1554 12.9435L52.3499 16.749C50.1555 18.9434 46.6182 18.9811 44.3777 16.862ZM28.5902 61.2491H32.3535C36.2714 61.221 39.2062 60.3785 41.0879 58.7496C42.9134 57.1628 43.798 54.8318 43.798 51.602C43.798 47.8246 41.4951 45.0443 39.459 42.5869C37.7739 40.5507 36.1871 38.6269 36.1871 36.3661C36.1871 34.5687 36.805 32.6589 38.0407 30.6509H22.903C24.1388 32.6589 24.7566 34.5827 24.7566 36.3661C24.7566 38.6269 23.1698 40.5507 21.4848 42.5869C19.4486 45.0443 17.1457 47.8246 17.1457 51.602C17.1457 54.8318 18.0304 57.1628 19.8559 58.7496C21.7375 60.3785 24.6724 61.221 28.5902 61.2491ZM29.3906 6.76492C29.7979 5.4309 30.2051 4.61644 30.5 4.16708C30.7949 4.61644 31.2021 5.4309 31.6093 6.76492C32.1008 8.36575 32.4097 10.2053 32.4097 11.441C32.4097 13.758 31.2864 15.2465 30.5 15.2465C29.7136 15.2465 28.5902 13.772 28.5902 11.441C28.5902 10.2053 28.8992 8.36575 29.3906 6.76492Z" fill="#8572A8"/>
</g>
</svg>
