<svg width="129" height="63" viewBox="0 0 129 63" fill="none" xmlns="http://www.w3.org/2000/svg">
<g id="Group 48096287">
<rect id="Rectangle 354" opacity="0.03" x="0.0244141" width="128.951" height="62.7787" rx="8.48361" fill="#947FBB"/>
<g id="path3789">
<path d="M71.4154 20.3608C66.7772 20.3608 62.6322 22.8662 62.6322 27.4952C62.6322 32.8037 69.9835 33.1703 69.9835 35.8372C69.9835 36.9601 68.7487 37.9652 66.6397 37.9652C63.6466 37.9652 61.4096 36.5607 61.4096 36.5607L60.4524 41.2318C60.4524 41.2318 63.0294 42.4182 66.4508 42.4182C71.5219 42.4182 75.5122 39.7898 75.5122 35.0817C75.5122 29.4723 68.1303 29.1166 68.1303 26.6413C68.1303 25.7617 69.144 24.7979 71.247 24.7979C73.6197 24.7979 75.5556 25.8193 75.5556 25.8193L76.4924 21.3078C76.4924 21.3078 74.386 20.3608 71.4154 20.3608ZM28.98 20.7013L28.8677 21.3823C28.8677 21.3823 30.819 21.7545 32.5765 22.4969C34.8394 23.3482 35.0006 23.8438 35.3817 25.3831L39.5346 42.0671H45.1016L53.6781 20.7013H48.1238L42.6129 35.228L40.3642 22.9145C40.1579 21.5052 39.1133 20.7013 37.8346 20.7013H28.98ZM55.9115 20.7013L51.5544 42.0671H56.8508L61.1926 20.7013H55.9115ZM85.4517 20.7013C84.1745 20.7013 83.4978 21.4139 83.0013 22.6591L75.2416 42.0671H80.7959L81.8705 38.8324H88.6372L89.2906 42.0671H94.1915L89.916 20.7013H85.4517ZM86.174 26.4737L87.8204 34.4912H83.4097L86.174 26.4737Z" fill="#1434CB"/>
<path d="M71.4154 20.3608C66.7772 20.3608 62.6322 22.8662 62.6322 27.4952C62.6322 32.8037 69.9835 33.1703 69.9835 35.8372C69.9835 36.9601 68.7487 37.9652 66.6397 37.9652C63.6466 37.9652 61.4096 36.5607 61.4096 36.5607L60.4524 41.2318C60.4524 41.2318 63.0294 42.4182 66.4508 42.4182C71.5219 42.4182 75.5122 39.7898 75.5122 35.0817C75.5122 29.4723 68.1303 29.1166 68.1303 26.6413C68.1303 25.7617 69.144 24.7979 71.247 24.7979C73.6197 24.7979 75.5556 25.8193 75.5556 25.8193L76.4924 21.3078C76.4924 21.3078 74.386 20.3608 71.4154 20.3608ZM28.98 20.7013L28.8677 21.3823C28.8677 21.3823 30.819 21.7545 32.5765 22.4969C34.8394 23.3482 35.0006 23.8438 35.3817 25.3831L39.5346 42.0671H45.1016L53.6781 20.7013H48.1238L42.6129 35.228L40.3642 22.9145C40.1579 21.5052 39.1133 20.7013 37.8346 20.7013H28.98ZM55.9115 20.7013L51.5544 42.0671H56.8508L61.1926 20.7013H55.9115ZM85.4517 20.7013C84.1745 20.7013 83.4978 21.4139 83.0013 22.6591L75.2416 42.0671H80.7959L81.8705 38.8324H88.6372L89.2906 42.0671H94.1915L89.916 20.7013H85.4517ZM86.174 26.4737L87.8204 34.4912H83.4097L86.174 26.4737Z" fill="#8572A8" style="mix-blend-mode:color"/>
</g>
</g>
</svg>
